<svg width="400" height="400" viewBox="0 0 400 400" fill="none" xmlns="http://www.w3.org/2000/svg"><path d="M400 0H0v400h400V0Z" fill="#fff"/><path fill-rule="evenodd" clip-rule="evenodd" d="M293.461 201.653c0 31.759-13.644 60.33-35.405 80.174V168.508h30.249c3.347 10.443 5.156 21.579 5.156 33.145Z" fill="#8AECB9"/><path fill-rule="evenodd" clip-rule="evenodd" d="M77.318 201.653c0-59.464 48.205-107.669 107.669-107.669 44.474 0 82.651 26.966 99.071 65.44h-35.086v128.832c-17.889 13.238-40.023 21.066-63.985 21.066-59.464 0-107.67-48.205-107.67-107.669Zm171.654 99.544c-18.448 11.882-40.411 18.776-63.985 18.776-65.346 0-118.32-52.974-118.32-118.32s52.974-118.32 118.32-118.32c50.469 0 93.557 31.599 110.561 76.091H333.431V319.212H248.972v-18.015Zm49.642-132.644h25.687v141.53h-66.2v-15.397c27.528-21.665 45.206-55.284 45.206-93.033 0-11.489-1.638-22.596-4.693-33.1Zm-11.142 0c3.365 10.429 5.184 21.552 5.184 33.1 0 31.239-13.304 59.37-34.555 79.038V168.553h29.371Z" fill="#0C193D"/></svg>