<svg width="400" height="400" viewBox="0 0 400 400" fill="none" xmlns="http://www.w3.org/2000/svg"><path d="M400 0H0v400h400V0Z" fill="#20220D"/><path fill-rule="evenodd" clip-rule="evenodd" d="M267.884 79.608a137.13 137.13 0 0 1 7.403 4.332c.016.644.025 1.29.025 1.937v115.549c0 40.18-32.573 72.752-72.753 72.752a73.025 73.025 0 0 1-15.692-1.696v-7.324a65.767 65.767 0 0 0 15.692 1.888c36.241 0 65.62-29.379 65.62-65.62V85.877c0-2.114-.1-4.205-.295-6.269Zm-65.325 211.689a90.46 90.46 0 0 1-15.692-1.365v7.235a97.79 97.79 0 0 0 15.692 1.262c53.574 0 97.004-43.43 97.004-97.003v-98.093a137.298 137.298 0 0 0-7.133-6.667v104.76c0 49.634-40.237 89.871-89.871 89.871Zm0-42.796a46.999 46.999 0 0 1-15.692-2.679v-17.211a31.243 31.243 0 0 0 15.692 4.198c17.333 0 31.384-14.051 31.384-31.383V66.666a135.951 135.951 0 0 1 15.691 4.693v130.067c0 25.998-21.076 47.075-47.075 47.075Zm0-144.077c5.343 0 10.584.432 15.692 1.263v7.235a90.353 90.353 0 0 0-15.692-1.366c-49.634 0-89.871 40.237-89.871 89.871v98.43c0 1.185.023 2.364.069 3.538a137.068 137.068 0 0 1-7.201-6.727v-95.241c0-53.573 43.43-97.003 97.003-97.003Zm0 24.25c5.388 0 10.638.586 15.692 1.697v7.325a65.761 65.761 0 0 0-15.692-1.889c-36.241 0-65.62 29.379-65.62 65.62v115.549c0 1.106.028 2.207.082 3.3a136.734 136.734 0 0 1-7.214-4.231V201.427c0-40.18 32.572-72.753 72.752-72.753Zm0 25.678c5.502 0 10.784.944 15.692 2.679v17.212a31.23 31.23 0 0 0-15.692-4.199c-17.332 0-31.383 14.05-31.383 31.383v131.907a135.595 135.595 0 0 1-15.692-4.693V201.427c0-25.999 21.076-47.075 47.075-47.075Z" fill="#FBFBE1"/></svg>