<svg width="400" height="400" viewBox="0 0 400 400" fill="none" xmlns="http://www.w3.org/2000/svg"><path d="M0 0h400v400H0V0Z" fill="#fff"/><path d="M303 177.867c6.983-6.984 14.728-4.928 14.728 1.85 0 6.611-7.928 13.755-17.5 19.289a64.928 64.928 0 0 1-3.134 1.688 25.535 25.535 0 0 1-.577-5.561c0-5.666 2.394-13.177 6.483-17.266Zm-37.267 71.322c-9.277 9.278-21.139-2.556-7.305-16.395 3.139-3.138 8.278-6.588 13.628-9.722 3.055 7.556.633 19.134-6.323 26.111v.006Zm-59.116-37.167c-7.117 0-11.728-8.533-10.306-19.078 1.395-10.544 8.3-19.083 15.417-19.083 6.589 0 11.016 7.333 10.516 16.789a125.41 125.41 0 0 0-.472 3.956c-1.872 9.75-8.433 17.422-15.155 17.422v-.006Zm-93.984-3.5c-2.322 2.317-5.166 3.556-8.039 3.556-2.688 0-5.01-1.211-6.933-3.134-6.589-6.588-6.011-22.744 2.45-31.233 2.4-2.4 5.3-3.794 8.278-3.794 2.661 0 5.005 1.183 6.928 3.111 6.194 6.189 6.566 22.244-2.684 31.494Zm220.334 3.45s-2.639-3.689-3.456-4.744c-.555-.684-1.239-1.528-3.055-.289-4.006 2.689-8.512 5.139-14.078 5.139-4.239 0-7.956-1.078-10.722-3.428a69.547 69.547 0 0 0 3.611-1.761c6.555-3.556 12.044-8.067 14.677-10.706 12.778-12.777 8.778-31.833-6.8-31.833-14.705 0-26.333 14.333-26.333 30.256 0 2.4.295 5.822 1.322 9.461-.866.422-6.694 3.244-13.677 7.089-6.562-4.928-16.817-2.717-16.817-2.717 9.517-13.489 23.828-34.578 25.039-36.317.872-1.239.739-2.478-.106-4.428-1.078-2.344-2.161-2.766-3.639-2.766h-29.722c-.978 0-1.744.444-2.033 1.555a67.774 67.774 0 0 0-1 6.139c-.134 1.295 1.078 2.084 2.344 2.084h21.534l-19.478 27.861a1.45 1.45 0 0 0-.372.416c-2.817 4.089-7.167 9.806-12.389 9.806-3.239 0-7.245-2.317-7.245-9.906 0-7.433 3-23.144 5.195-35.372.233-1.317-.211-2.611-2.323-2.611h-5.272c-1.211 0-1.894.739-2.078 1.767a517.667 517.667 0 0 1-.95 5.483c-2.611-4.983-6.777-7.8-12.811-7.8-5.583 0-11.039 2.083-15.5 6.511-11.116 11.122-9.011 29.25-18.605 38.845-4.134 4.138-8.828 2.872-8.828-5.273 0-9.3 3.556-19.661 7.644-29.489.712-1.738-.055-3.188-.816-4.322-1.084-1.583-1.5-2.428-3.456-2.428-3.028 0-7.878 1.928-17.578 1.928-2.055 0-4.033-.083-5.794-.211.1-1.45.128-2.428.156-2.794.055-1.373-.423-2.239-1.873-2.239h-4.955c-1.789 0-2.239.839-2.445 2.239-.85 5.927-2.455 27.7-13.366 38.611-1.267 1.266-2.028 1.661-2.028 1.661 2.711-5.328 4.189-12.311 4.189-17.845 0-15.577-9.222-25.222-20.795-25.222-3.533 0-7.277 1.134-10.777 3.322 1.633-9.488 3.133-18.372 3.661-21.377.444-2.528-.473-3.845-1.134-4.9-1.11-1.711-2.083-2.478-3.555-2.478h-17.09c-.971 0-1.71.683-1.944 1.767-.294 1.266-.9 4.583-.977 6.111-.056 1.344.866 1.844 1.944 1.844h12.5c-2.005 12.256-5.8 36-6.961 41.961-1.444 7.589-6.85 16.889-15.944 20.189-1.134.422-1.612 1.445-1.19 2.667.423 1.205 1.978 4.372 2.456 5.189.472.839 1.528 1.394 2.528 1.055a33.65 33.65 0 0 0 12.467-7.75 28.66 28.66 0 0 0 2.45-2.822c4.089 9.172 12.389 12.522 20.9 12.522 9.622 0 20-3.35 27.277-10.65 8.517-8.489 12.073-22.561 13.573-32.522 2.111.289 4.511.528 6.8.528 3.62-.015 7.227-.43 10.755-1.239 0 0-5.905 15.655-5.905 27.2 0 13.017 6.222 16.705 13.127 16.705 7.089 0 12.073-5.322 15.628-11.911.922 2.056 2.295 4.506 4.167 6.378 3.211 3.217 7.194 5.533 12.939 5.533 6.561 0 12.2-3.794 16.211-9.616.711 2.444 1.817 4.5 3.317 6.005 2.033 2.034 5.744 3.611 10.411 3.611 8.011 0 12.65-6.005 25.116-6.005 1.584 0 3.006.233 4.295.683-5.717 3.478-11.145 7.222-14.467 10.545-10.278 10.277-10.755 23.794-4.005 30.544 8.166 8.167 19.816 4.083 27.094-3.189 8.511-8.511 10.989-24.616 6.056-35.633 5.961-3.139 10.944-5.456 12.127-6.011 3.717 5.089 9.889 9.066 20.056 9.066 7.278 0 14.605-2.583 20.322-6.905a1.99 1.99 0 0 0 .797-1.291 1.992 1.992 0 0 0-.352-1.476h.011Z" fill="#212123"/></svg>