<svg width="400" height="400" viewBox="0 0 400 400" fill="none" xmlns="http://www.w3.org/2000/svg"><path d="M0 0h400v400H0V0Z" fill="#7856FF"/><path fill-rule="evenodd" clip-rule="evenodd" d="M331.494 115.439a10.106 10.106 0 0 0-6.55-4.179 10.12 10.12 0 0 0-7.583 1.696L68.472 287.2a10.102 10.102 0 0 0 8.306 4.322l.011.011h246.405a10.136 10.136 0 0 0 7.172-2.975 10.127 10.127 0 0 0 2.967-7.175V121.078a10.122 10.122 0 0 0-1.839-5.667v.028Zm-248.883-2.495a10.15 10.15 0 0 0-14.405 2.947 10.145 10.145 0 0 0-1.54 5.192v160.6l118.49-97.061-102.528-71.7" fill="#fff"/></svg>