<svg width="400" height="400" viewBox="0 0 400 400" fill="none" xmlns="http://www.w3.org/2000/svg"><path d="M400 0H0v400h400V0Z" fill="#1856ED"/><path fill-rule="evenodd" clip-rule="evenodd" d="M238.382 175.809c2.365 7.096 8.988 11.353 16.557 11.353 1.892 0 3.784-.473 5.677-.946 8.987-3.311 13.718-13.245 10.406-22.233-5.676-15.61-17.503-27.91-34.059-35.478-8.515-3.784-18.922 0-23.179 8.514-3.785 8.515 0 18.923 8.515 23.18 8.514 3.784 13.718 8.988 16.083 15.61ZM232.706 67.009c-9.461-1.892-18.449 4.257-20.341 13.718-1.893 9.46 4.257 18.449 13.718 20.341 39.263 7.569 65.753 34.059 72.376 72.376 1.419 8.515 8.988 14.192 17.029 14.192.946 0 1.893 0 2.839-.474 9.461-1.892 15.61-10.88 14.191-19.868-8.987-52.035-46.359-89.879-99.812-100.285Z" fill="#FF9E1A"/><path fill-rule="evenodd" clip-rule="evenodd" d="M188.712 240.143c-15.61 0-28.855-12.772-28.855-28.856 0-15.61 12.772-28.855 28.855-28.855 9.461 0 17.503-7.569 17.503-17.503 0-9.934-7.569-17.503-17.503-17.503-35.005 0-63.388 28.383-63.388 63.388 0 35.006 28.383 63.389 63.388 63.389 35.006 0 63.389-28.383 63.389-63.389 0-9.461-7.569-17.502-17.503-17.502-9.461 0-17.503 7.569-17.503 17.502.473 16.557-12.772 29.329-28.383 29.329Z" fill="#fff"/><path fill-rule="evenodd" clip-rule="evenodd" d="M293.256 194.258c-9.461 0-17.503 7.569-17.503 17.503 0 48.25-39.263 87.513-87.513 87.513-48.251 0-87.514-39.263-87.514-87.513 0-48.251 39.263-87.514 87.514-87.514 9.46 0 17.502-7.569 17.502-17.503 0-9.46-7.569-17.502-17.502-17.502-66.7 0-121.573 54.873-121.573 122.046 0 67.172 54.873 122.045 122.045 122.045 67.173 0 122.046-54.873 122.046-122.045 0-9.461-7.568-17.03-17.502-17.03Z" fill="#fff"/></svg>