<svg width="400" height="400" viewBox="0 0 400 400" fill="none" xmlns="http://www.w3.org/2000/svg"><path d="M0 0h400v400H0V0Z" fill="#E51635"/><path opacity=".66" fill-rule="evenodd" clip-rule="evenodd" d="M154.933 172.944a24.176 24.176 0 0 1 24.167 23.723 14.228 14.228 0 0 0 28.444 0h9.934a24.166 24.166 0 0 1-48.334 0 14.228 14.228 0 0 0-28.433 0h-9.944a24.177 24.177 0 0 1 24.166-23.723" fill="#fff"/><path fill-rule="evenodd" clip-rule="evenodd" d="M258.089 172.906v23.761c0 .083 0 .161-.011.239a14.232 14.232 0 0 1-28.417.044c-.011-.089-.016-24.033-.016-24.128h-9.939v24.084a24.173 24.173 0 0 0 7.366 16.521 24.174 24.174 0 0 0 33.552.039 24.173 24.173 0 0 0 7.404-16.505l.005-.294v-23.761h-9.944ZM117.378 150v70.267h9.955V150h-9.955Zm176.367 60.889a14.253 14.253 0 0 1-14.25-14.222c.244-7.645 6.805-13.778 14.511-13.778a14.22 14.22 0 0 1 12.577 7.578 14.24 14.24 0 0 1-5.945 18.652 14.23 14.23 0 0 1-6.893 1.775v-.005Zm24.427 9.483v-23.811A24.175 24.175 0 0 0 287.1 173.95a23.57 23.57 0 0 0-17.233 22.039c-.017.222-.017.45-.022.678h.005a23.569 23.569 0 0 0 26.331 23.372 23.567 23.567 0 0 0 12.052-5.078v5.411h9.945-.006Zm-163.239.011a24.17 24.17 0 0 0 24.167-23.716 14.237 14.237 0 0 1 14.143-13.627 14.235 14.235 0 0 1 14.29 13.471l.006 52.433h9.939v-52.388a24.168 24.168 0 0 0-41.294-16.994 24.165 24.165 0 0 0-7.039 17.105 14.224 14.224 0 0 1-24.097 9.74 14.22 14.22 0 0 1-4.331-9.74h-9.95a24.174 24.174 0 0 0 24.166 23.722" fill="#fff"/><path d="M102.066 191.122a11.143 11.143 0 0 0-4.35-6.039 12.64 12.64 0 0 0-7.533-2.322c-3.11 0-5.833.872-8.172 2.611-1.467 1.084-2.833 3-4.083 5.75h24.138Zm11.134 8.761H77.428c.522 3.161 1.9 5.667 4.144 7.528 2.239 1.867 5.111 2.795 8.583 2.795 4.167 0 7.734-1.45 10.734-4.362l9.377 4.406c-2.338 3.317-5.144 5.778-8.405 7.356-3.261 1.594-7.133 2.388-11.617 2.388-6.966 0-12.639-2.188-17.01-6.588-4.39-4.389-6.567-9.889-6.567-16.495 0-6.767 2.177-12.389 6.544-16.861 4.367-4.483 9.839-6.711 16.411-6.711 6.989 0 12.667 2.228 17.05 6.711 4.383 4.472 6.561 10.378 6.561 17.722l-.033 2.111Zm212.878 15.406v4.705h-.828v-4.705h-1.5v-.756h3.822v.756h-1.494Zm6.427 4.705v-3.655l-1.261 2.667h-.605l-1.295-2.667v3.655h-.822v-5.461h.822l1.6 3.406 1.561-3.406h.834v5.461h-.834Z" fill="#fff"/></svg>