<svg width="400" height="400" viewBox="0 0 400 400" fill="none" xmlns="http://www.w3.org/2000/svg"><path d="M400 0H0v400h400V0Z" fill="#000"/><path d="M94.545 217.395c4.849 0 8.549-2.169 12.122-5.359 1.276-1.084 1.913-1.977 3.699-1.977 1.34 0 2.489 1.084 2.616 2.424 0 3.254-4.848 7.018-7.272 8.357-4.657 2.807-9.315 3.764-14.865 3.764-12.248-.063-24.178-7.975-24.178-21.18 0-15.12 13.014-24.051 26.985-24.051 7.975 0 18.373 3.7 18.373 13.078 0 6.635-6.379 13.015-29.027 15.311 1.212 5.678 5.742 9.633 11.547 9.633Zm3.51-25.901c0-3.381-1.787-5.805-5.36-5.805-7.528 0-10.91 9.888-10.462 16.14 5.87-.511 15.821-2.935 15.821-10.335ZM119.298 194.684c0-3.126.383-4.785-2.679-6.252-.893-.383-1.914-.957-1.914-2.424 0-3.254 11.037-6.635 13.844-6.635 3.062 0 3.7 4.146 4.019 6.443a18.938 18.938 0 0 1 14.418-6.443c5.359 0 10.144 2.424 12.823 7.273 3.508-5.168 9.25-7.273 15.311-7.273 3.955 0 8.357 1.339 11.292 4.146 3.381 3.254 3.955 7.784 3.955 12.313v15.311c0 4.402 0 5.486 1.34 6.444 1.403.637 2.233 1.275 2.233 2.806 0 2.808-2.233 2.871-4.211 2.871h-13.333c-1.978 0-4.211-.063-4.211-2.871 0-1.531.83-2.169 2.233-2.806 1.34-.958 1.34-2.042 1.34-6.444v-13.206c0-4.338.064-10.526-5.806-10.526-2.424-.064-4.721 1.085-6.188 3.062-1.594 2.169-1.594 5.295-1.594 7.911v12.759c0 4.402 0 5.486 1.339 6.444 1.403.637 2.233 1.275 2.233 2.806 0 2.808-2.233 2.871-4.211 2.871h-13.333c-1.978 0-4.211-.063-4.211-2.871 0-1.531.83-2.169 2.233-2.806 1.34-.958 1.34-2.042 1.34-6.444v-13.206c0-4.338.064-10.526-5.805-10.526-2.425-.064-4.722 1.085-6.189 3.062-1.594 2.169-1.594 5.295-1.594 7.911v12.759c0 4.402 0 5.486 1.339 6.444 1.404.637 2.233 1.275 2.233 2.806 0 2.808-2.233 2.871-4.211 2.871h-13.397c-1.977 0-4.21-.063-4.21-2.871 0-1.531.829-2.169 2.233-2.806 1.339-1.021 1.339-2.106 1.339-6.508v-16.395ZM201.34 194.684c0-3.126.383-4.785-2.679-6.252-.894-.383-1.851-.957-1.851-2.424 0-3.254 11.037-6.635 13.78-6.635 3.062 0 3.701 4.146 4.019 6.443a18.938 18.938 0 0 1 14.418-6.443c5.359 0 10.144 2.424 12.823 7.273 3.509-5.168 9.251-7.273 15.311-7.273 3.956 0 8.357 1.339 11.292 4.146 3.445 3.254 3.955 7.784 3.955 12.313v15.311c0 4.402 0 5.486 1.34 6.444 1.404.637 2.233 1.275 2.233 2.806 0 2.808-2.233 2.871-4.21 2.871h-13.334c-1.978 0-4.21-.063-4.21-2.871 0-1.531.829-2.169 2.232-2.806 1.34-.958 1.34-2.042 1.34-6.444v-13.206c0-4.338.064-10.526-5.805-10.526-2.425-.064-4.721 1.085-6.188 3.062-1.595 2.169-1.595 5.295-1.595 7.911v12.759c0 4.402 0 5.486 1.339 6.444 1.404.637 2.233 1.275 2.233 2.806 0 2.808-2.233 2.871-4.21 2.871h-13.334c-1.977 0-4.21-.063-4.21-2.871 0-1.531.829-2.169 2.233-2.806 1.339-.958 1.339-2.042 1.339-6.444v-13.206c0-4.338.064-10.526-5.805-10.526-2.424-.064-4.721 1.085-6.188 3.062-1.595 2.169-1.595 5.295-1.595 7.911v12.759c0 4.402 0 5.486 1.339 6.444 1.404.637 2.234 1.275 2.234 2.806 0 2.808-2.233 2.871-4.211 2.871h-13.397c-1.978 0-4.211-.063-4.211-2.871 0-1.531.83-2.169 2.233-2.806 1.34-.958 1.34-2.042 1.34-6.444v-16.459ZM321.531 210.952c0 4.21.064 5.486 1.722 6.251 1.978 1.021 2.935 1.595 2.935 3.126 0 2.872-2.679 2.872-4.848 2.872h-9.314c-4.466 0-4.466-1.532-4.466-5.551-3.062 5.04-8.421 6.89-13.908 6.89-8.421 0-16.14-4.657-16.14-13.907 0-12.76 16.14-15.886 26.029-15.886h2.998c0-5.359-2.552-9.441-8.293-9.441-5.487 0-6.253 5.741-11.93 5.741-2.616 0-5.55-1.148-5.55-4.338 0-6.252 14.162-7.464 18.564-7.464 15.63 0 22.265 6.89 22.265 17.416l-.064 14.291Zm-16.14-10.527c-6.38 0-12.823 3.126-12.823 10.335 0 3.381 1.978 6.443 5.678 6.443 2.934 0 5.295-1.914 6.89-4.337 1.914-3.063 1.914-3.127 1.914-12.441h-1.659ZM329.378 185.178c-1.978 0-3.636-1.595-3.7-3.572v-.128c0-2.041 1.659-3.7 3.7-3.7 2.041 0 3.7 1.659 3.7 3.7a3.557 3.557 0 0 1-3.572 3.7h-.128Zm0-6.826c-1.595-.064-2.935 1.212-2.999 2.807v.255c-.064 1.659 1.213 3.062 2.872 3.126 1.658.064 3.062-1.212 3.125-2.871v-.255c.128-1.595-1.084-2.998-2.679-3.126-.128.064-.255.064-.319.064Zm.765 4.976-.637-1.404h-.766v1.404h-.702v-3.891h1.404c.701-.064 1.34.446 1.404 1.148v.063c0 .511-.256.958-.703 1.149l.703 1.531h-.703Zm-.637-3.254h-.766v1.213h.702c.382 0 .638-.192.638-.639.063-.382-.192-.637-.574-.574.063 0 0 0 0 0Z" fill="#fff"/></svg>