<svg width="400" height="400" viewBox="0 0 400 400" fill="none" xmlns="http://www.w3.org/2000/svg"><path d="M400 0H0v400h400V0Z" fill="#FF7A59"/><path d="M267.949 154.787v-31.625a24.38 24.38 0 0 0 14.063-21.981v-.739a24.43 24.43 0 0 0-24.364-24.364h-.739a24.433 24.433 0 0 0-24.364 24.364v.739a24.385 24.385 0 0 0 14.063 21.981v31.691a69.105 69.105 0 0 0-32.857 14.457l-86.973-67.735a27.745 27.745 0 0 0-14.534-32.046 27.747 27.747 0 1 0 1.539 48.951l85.511 66.569a69.298 69.298 0 0 0 1.068 78.134l-26.023 26.023a22.399 22.399 0 0 0-6.456-1.052 22.59 22.59 0 0 0-15.974 38.563 22.592 22.592 0 0 0 34.756-3.423 22.59 22.59 0 0 0 3.807-12.55 22.286 22.286 0 0 0-1.052-6.456l25.744-25.744a69.408 69.408 0 0 0 87.53-2.653 69.406 69.406 0 0 0 15.272-86.229 69.405 69.405 0 0 0-50.066-34.875h.049Zm-10.711 104.19a35.62 35.62 0 0 1-32.849-22.047 35.614 35.614 0 0 1 7.78-38.789 35.626 35.626 0 0 1 18.242-9.722 35.622 35.622 0 0 1 36.537 15.174 35.62 35.62 0 0 1 5.989 19.784 35.62 35.62 0 0 1-35.617 35.617" fill="#fff"/></svg>