<svg width="400" height="400" viewBox="0 0 400 400" fill="none" xmlns="http://www.w3.org/2000/svg"><path d="M400 0H0v400h400V0Z" fill="#fff"/><path opacity=".15" fill-rule="evenodd" clip-rule="evenodd" d="m223.017 125.411-96.525 99.908-49.035-47.374 96.524-99.908 49.036 47.374Z" fill="#67266D"/><path opacity=".15" fill-rule="evenodd" clip-rule="evenodd" d="m174.664 274.113 98.231-98.231 48.212 48.211-98.231 98.231-48.212-48.211Z" fill="#58C1A8"/><path opacity=".15" fill-rule="evenodd" clip-rule="evenodd" d="m126.462 177.665 98.231 98.231-48.212 48.212-98.231-98.231 48.212-48.212Z" fill="#EE3853"/><path opacity=".15" fill-rule="evenodd" clip-rule="evenodd" d="m272.666 224.338-98.231-98.231 48.212-48.212 98.231 98.231-48.212 48.212Z" fill="#2DC3F3"/><path d="M233.057 298.481c0 19.023-15.42 34.441-34.441 34.441s-34.442-15.418-34.442-34.441c0-19.023 15.421-34.441 34.442-34.441s34.441 15.418 34.441 34.441Z" fill="#58C1A8"/><path d="M164.052 101.953c0-19.02 15.421-34.44 34.441-34.44 19.023 0 34.444 15.42 34.444 34.44 0 19.023-15.421 34.444-34.444 34.444-19.02 0-34.441-15.421-34.441-34.444Z" fill="#67266D"/><path d="M77.031 226.186c-13.45-13.452-13.449-35.258.001-48.708 13.451-13.451 35.257-13.452 48.708-.001 13.45 13.45 13.45 35.256-.001 48.707-13.45 13.45-35.258 13.452-48.708.002Z" fill="#EE3853"/><path d="M331.777 199.652c0 19.023-15.421 34.441-34.441 34.441-19.023 0-34.442-15.418-34.442-34.441 0-19.023 15.419-34.441 34.442-34.441 19.02 0 34.441 15.418 34.441 34.441Z" fill="#2DC3F3"/></svg>