<svg width="400" height="400" viewBox="0 0 400 400" fill="none" xmlns="http://www.w3.org/2000/svg"><path d="M400 0H0v400h400V0Z" fill="#fff"/><path d="m72.065 192.575 119.555-79.201c4.715-3.017 12.069-3.017 16.783 0l119.556 79.201c7.166 4.714 7.166 12.446 0 17.16l-16.029 10.56c-23.571-37.149-65.057-61.664-112.012-61.664-47.144 0-88.441 24.703-112.013 61.663l-16.029-10.56c-6.977-4.713-6.977-12.633.189-17.159Zm127.853-.943c-35.641 0-66.756 18.857-84.481 46.766l27.532 18.291c11.691-19.234 32.623-32.057 56.76-32.057 23.949 0 45.069 12.823 56.761 32.057l27.532-18.291c-17.161-27.909-48.464-46.766-84.104-46.766Zm0 66.189c-12.446 0-23.384 6.977-29.229 17.16l18.48 12.068c3.017 2.452 6.6 3.96 10.749 3.96 4.149 0 7.92-1.508 10.749-3.96l18.48-12.068c-5.469-9.994-16.595-17.16-29.229-17.16Z" fill="url(#a)"/><defs><linearGradient id="a" x1="200" y1="291.01" x2="200" y2="111.111" gradientUnits="userSpaceOnUse"><stop stop-color="#F0C21A"/><stop offset=".331" stop-color="#93C94B"/><stop offset=".486" stop-color="#70C05A"/><stop offset=".751" stop-color="#12B259"/><stop offset=".903" stop-color="#22AD69"/><stop offset="1" stop-color="#22AD69"/></linearGradient></defs></svg>