<svg width="400" height="400" viewBox="0 0 400 400" fill="none" xmlns="http://www.w3.org/2000/svg"><path d="M400 0H0v400h400V0Z" fill="#fff"/><path d="m171.282 246.496-46.496 63.59c20.513 13.675 44.445 21.88 71.111 23.247v-78.632c-8.889-.684-17.094-3.419-24.615-8.205Z" fill="#48555C"/><path d="M195.897 145.299V66.667c-26.666.684-50.598 9.573-71.111 23.248l46.496 63.589c6.837-4.786 15.726-7.521 24.615-8.205Z" fill="#B2AD4B"/><path d="M274.53 89.915c-20.513-13.675-44.444-21.88-71.111-23.248v78.632c8.889.684 17.094 3.419 24.615 8.205l46.496-63.59Z" fill="#E3B23A"/><path d="m149.401 221.197-75.214 23.931c8.89 23.932 23.932 45.129 43.761 60.171l46.496-63.59c-6.154-5.47-11.624-12.991-15.043-20.512Z" fill="#4E5C5A"/><path d="m164.444 158.291-46.496-63.59c-19.829 15.726-34.872 36.239-43.76 60.171l75.213 24.615c3.419-8.205 8.205-15.726 15.043-21.196Z" fill="#9E9540"/><path d="M145.299 200c0-4.103.684-8.889 1.368-12.992l-74.53-23.931c-3.419 11.624-5.47 23.931-5.47 36.923s2.051 25.299 5.47 37.607l74.53-24.615c-.684-4.103-1.368-8.206-1.368-12.992Z" fill="#6A7B53"/><path d="m235.556 241.709 46.496 63.59c19.829-15.726 34.871-36.239 43.76-60.171l-75.214-24.615c-3.418 8.205-8.888 15.726-15.042 21.196Z" fill="#D45741"/><path d="M204.103 254.701v78.632c25.982-.684 50.598-8.889 71.111-23.247l-46.496-63.59c-6.838 4.786-15.727 7.521-24.615 8.205Z" fill="#983428"/><path d="m327.863 162.393-74.53 24.615c1.367 4.103 1.367 8.889 1.367 12.992 0 4.103-.683 8.889-1.367 12.992l74.53 24.615c3.418-11.624 5.47-23.932 5.47-36.923 0-13.676-2.052-25.983-5.47-38.291Z" fill="#E7703D"/><path d="m250.599 178.803 74.53-24.615c-8.889-23.932-23.932-45.128-43.761-60.17l-46.496 63.589c6.838 6.154 12.308 13.675 15.727 21.196Z" fill="#F2A738"/></svg>