<svg width="400" height="400" viewBox="0 0 400 400" fill="none" xmlns="http://www.w3.org/2000/svg"><path d="M400 0H0v400h400V0Z" fill="#FFE01B"/><path d="M261.222 192.676c1.946-.231 3.81-.243 5.526 0 .993-2.275 1.162-6.195.269-10.465-1.324-6.347-3.12-10.187-6.829-9.588-3.71.598-3.846 5.196-2.518 11.54.746 3.571 2.073 6.623 3.552 8.513ZM229.386 197.698l.42.185c2.405 1.059 3.899 1.716 4.501 1.077.412-.421.288-1.223-.347-2.258-1.309-2.136-4.003-4.305-6.862-5.523-5.843-2.515-12.814-1.68-18.192 2.184-1.775 1.301-3.458 3.103-3.218 4.196.077.352.344.619.966.708.575.065 1.714-.294 3.242-.776 2.361-.745 5.651-1.784 9.229-2.003 4.157-.255 7.606 1.045 10.261 2.21ZM217.463 203.488c1.223-1.058 3.129-2.199 6.586-2.744 4.759-.566 8.252 1.653 9.061 2.966.347.563.21.933.098 1.105-.371.583-1.169.493-2.831.306l-.109-.013c-3.143-.355-6.316-.566-11.125 1.156 0 0-1.751.702-2.531.702a.83.83 0 0 1-.569-.216c-.115-.098-.26-.293-.264-.631-.005-.708.64-1.719 1.684-2.631ZM265.557 198.741c-1.905-.033-3.487 2.06-3.532 4.676-.044 2.616 1.467 4.758 3.372 4.791 1.905.032 3.487-2.06 3.532-4.676.044-2.613-1.467-4.758-3.372-4.791ZM250.473 211.923c2.347 1.153 4.931.699 5.772-1.01.842-1.71-.379-4.033-2.725-5.185-2.347-1.153-4.931-.7-5.773 1.01-.841 1.713.38 4.033 2.726 5.185ZM135.51 245.642c.755-.178 1.535-.359 2.008.236l-.008.006c.175.193.441.643.124 1.384-.539 1.25-2.672 2.966-5.724 2.85-3.138-.242-6.632-2.524-7.105-8.204-.234-2.806.826-6.222 1.478-8.008 1.262-3.453.124-7.073-2.83-9.005a7.643 7.643 0 0 0-5.837-1.09 7.505 7.505 0 0 0-4.776 3.3c-.902 1.409-1.453 3.166-1.75 4.112l-.19.585c-.664 1.786-1.725 2.308-2.442 2.213-.338-.048-.806-.275-1.105-1.093-.815-2.237-.154-8.569 4.062-13.221 2.672-2.948 6.862-4.456 10.933-3.941 4.24.54 7.766 3.102 9.929 7.221 2.871 5.47.314 11.209-1.215 14.64l-.447 1.019c-.957 2.276-1.008 4.263-.139 5.597.666 1.025 1.855 1.624 3.256 1.65.655.009 1.25-.127 1.778-.251Z" fill="#241C15"/><path fill-rule="evenodd" clip-rule="evenodd" d="m313.612 235.333.043.155v.005c3.823 0 9.825 4.4 9.825 15.016 0 10.567-4.382 22.534-5.416 25.189-15.792 37.843-53.481 58.909-98.379 57.576-41.854-1.245-77.552-23.331-93.175-59.333-9.446.008-19.182-4.145-26.587-10.705-7.802-6.91-12.613-15.852-13.55-25.183-.732-7.262.163-14.017 2.44-19.914l-8.774-7.433c-40.145-33.9 85.425-173.475 125.588-138.444.201.177 13.661 13.384 13.694 13.416l7.464-3.167c35.226-14.587 63.81-7.544 63.845 15.73.021 12.101-7.692 26.21-20.047 39.016 4.477 4.154 8.062 10.649 10.121 18.071 1.728 5.481 2.033 11.049 2.19 14.616.148 3.408.306 9.944.398 13.729a263.2 263.2 0 0 0 .076 2.899l4.96 1.378c9.455 2.655 16.184 6.193 19.472 9.644 3.289 3.455 4.922 6.794 5.514 10.714.558 3.162.484 8.747-3.689 14.99 0 0 1.077 2.344 2.116 5.68.952 3.05 1.668 5.624 1.871 6.355ZM199.718 114.436c-10.978 5.615-23.229 15.615-33.185 27.117-.353.406.172.984.607.667 8.596-6.252 20.383-12.068 35.823-15.834 17.297-4.219 33.946-2.45 44.118-.119.509.116.832-.764.379-1.019-6.723-3.772-17.037-6.332-24.352-6.385a.443.443 0 0 1-.35-.708c1.265-1.701 2.999-3.384 4.584-4.599.355-.275.139-.847-.308-.82-10.421.64-22.3 5.629-29.129 10.284a.45.45 0 0 1-.691-.471c.531-2.563 2.211-5.944 3.082-7.523.204-.373-.198-.785-.578-.59Zm57.905 142.61a.797.797 0 0 1-.465.794s-16.314 7.579-42.228-.436c.72 6.078 6.646 8.803 9.475 9.905 3.562 1.384 7.464 2.027 7.464 2.027 32.113 5.526 62.133-12.835 68.891-17.46.507-.347.845-.009.436.604l-.661.942c-8.272 10.67-30.512 23.025-59.445 23.022-12.62-.003-25.233-4.447-29.864-11.28-7.185-10.601-.356-26.071 11.615-24.459l5.244.593c14.966 1.668 36.628-.43 54.483-8.717 16.335-7.582 22.504-15.926 21.579-22.682-.252-1.819-1.067-3.727-2.818-5.522-2.936-2.874-7.591-5.111-15.442-7.316l-1.486-.415c-1.83-.509-3.255-.906-4.766-1.404-3.372-1.111-5.04-2.003-5.417-8.344-.165-2.773-.648-12.432-.823-16.424-.308-6.992-1.15-16.553-7.082-20.5-1.543-1.028-3.262-1.523-5.069-1.621-1.461-.069-2.32.136-2.775.244a4.368 4.368 0 0 1-.236.052c-3.204.542-5.17 2.186-7.485 4.123l-.399.334c-7.401 6.166-13.647 7.176-20.595 6.874-2.165-.092-4.397-.311-6.752-.542-2.161-.212-4.427-.435-6.839-.578l-2.949-.169c-11.635-.595-24.115 9.455-26.189 23.724-2.316 15.924 6.47 25.679 12.186 32.026 1.414 1.569 2.641 2.931 3.464 4.125.53.723 1.144 1.74 1.144 2.702 0 1.153-.747 2.069-1.479 2.845v.006c-11.869 12.207-15.665 31.599-11.193 47.763a39.067 39.067 0 0 0 2.103 5.792c10.495 24.527 43.058 35.949 74.868 25.558a77.762 77.762 0 0 0 12.086-5.102c7.134-3.496 13.369-8.302 18.506-13.831 8.439-8.821 13.458-18.408 15.408-30.219.956-6.323-.445-8.767-2.356-9.944-2.024-1.244-4.444-.812-4.444-.812s-1.105-7.561-4.231-14.429c-9.272 7.318-21.209 12.462-30.297 15.069-10.488 3.011-24.681 5.325-40.515 4.38-1.725-.14-3.335-.35-4.826-.545-6.101-.798-10.199-1.334-11.956 4.376 20.068 7.345 41.309 4.201 41.309 4.201a.75.75 0 0 1 .821.67ZM93.008 210.172c4.856-7.058 12.8-12.166 21.813-13.917 11.476-30.794 30.625-59.17 55.982-78.693 18.817-15.695 39.111-26.954 39.111-26.954s-10.931-12.672-14.231-13.606c-20.3-5.487-64.151 24.756-92.151 64.711-11.33 16.169-27.547 44.797-19.793 59.523.957 1.828 6.365 6.515 9.269 8.936Zm32.796 53.944a21.414 21.414 0 0 0 4.16-.291c14.673-2.501 18.513-18.436 16.095-34.086-2.729-17.671-14.681-23.898-22.794-24.343a24.555 24.555 0 0 0-6.077.432c-14.477 2.922-22.654 15.236-21.045 31.239 1.454 14.477 16.1 26.684 29.661 27.049Z" fill="#241C15"/></svg>