<svg width="400" height="400" viewBox="0 0 400 400" fill="none" xmlns="http://www.w3.org/2000/svg"><path d="M400 0H0v400h400V0Z" fill="#fff"/><path d="M95.676 288.119c-.425.422-.873.821-1.34 1.197v-6.337h-5.651v49.328h5.667v-18.088c8.156 9.387 17.559 8.444 23.641 4.645 7.454-4.613 10.648-14.558 7.982-23.737-4.134-13.521-21.072-18.166-30.299-7.008Zm10.361 27.984c-7.455 0-12.02-6.386-12.084-14.367-.065-7.982 6.13-14.575 13.553-14.639 7.422-.063 13.296 6.21 13.296 14.606-.069 8.006-6.616 14.438-14.62 14.369h-.161l.016.031ZM297.23 271.486v11.174h11.893v5.108h-11.59c-.08 1.229-.207 2.123-.207 3.193 0 5.875.223 11.765 0 17.56-.352 6.912 3.193 8.381 9.577 7.103a16.207 16.207 0 0 0 1.597-.526c1.325 4.326.494 5.635-3.816 6.177-8.987 1.069-13.298-2.73-13.313-11.812v-21.455l-5.107-.24v-4.789l5.075-.319v-11.174h5.891ZM180.011 320.588h-5.715v-37.609h5.603v8.684c3.942-5.954 8.316-9.753 15.309-9.466v5.859c-11.334 2.123-15.213 6.928-15.213 18.677.016 4.485.016 9.051.016 13.855ZM230.279 267.319v21.87c-9.96-8.923-18.965-9.578-26.595-2.507-7.63 7.072-8.301 19.796-1.85 28.08a17.167 17.167 0 0 0 10.455 6.386c7.23 1.453 12.898-1.373 17.959-7.646v6.975h5.475v-53.174h-5.444v.016Zm-13.712 49.024c-7.455-.176-13.233-6.769-13.073-14.959.159-8.188 5.73-14.366 13.297-14.27 7.567.095 13.648 6.592 13.537 14.893-.064 7.902-6.402 14.495-13.745 14.336h-.016ZM164.415 294.153c-.335-5.762-3.879-9.578-9.402-11.062a28.561 28.561 0 0 0-20.209 2.346l1.596 4.677c6.689-2.49 10.232-2.985 14.606-2.442 4.917.623 9.275 5.316 7.599 10.887l-1.724-.367c-6.386-1.196-12.691-1.9-18.774.91-5.739 2.433-8.418 9.057-5.985 14.796a11.279 11.279 0 0 0 4.102 4.966 16.524 16.524 0 0 0 10.791 2.698 18.23 18.23 0 0 0 11.989-5.794l.271 4.789h5.316c0-.846.207-1.596.191-2.204-.047-8.092.112-16.218-.367-24.2Zm-10.903 21.135c-4.676 2.251-9.45 2.586-13.84-.669a6.772 6.772 0 0 1 .543-10.888 23.578 23.578 0 0 1 17.016-1.07 3.337 3.337 0 0 1 1.868 2.316 9.242 9.242 0 0 1-5.571 10.264l-.016.047ZM263.436 281.829c-11.019-.183-20.101 8.602-20.284 19.62-.184 11.019 8.6 20.1 19.62 20.284 11.01.183 20.087-8.588 20.282-19.598v-.128c.205-10.913-8.475-19.925-19.388-20.129l-.023-.001-.207-.048Zm0 34.624c-7.774 0-13.937-6.56-13.904-14.893.031-8.333 5.954-14.542 13.84-14.479 7.886.065 13.84 6.514 13.84 14.671s-6.05 14.671-13.793 14.701h.017Z" fill="#7D888E"/><path d="M177.499 87.386c17.814-18.648 47.37-19.323 66.017-1.51a46.696 46.696 0 0 1 8.74 11.407 56.287 56.287 0 0 1 23.195-4.9c31.968 0 57.883 25.915 57.883 57.883 0 31.968-25.915 57.883-57.883 57.883a56.23 56.23 0 0 1-11.286-1.166 42.062 42.062 0 0 1-36.605 21.487 40.614 40.614 0 0 1-18.293-4.262c-10.376 24.329-38.511 35.639-62.839 25.264a47.893 47.893 0 0 1-26.109-27.386 43.191 43.191 0 0 1-9.147.957c-24.825-.321-44.69-20.703-44.368-45.529a44.953 44.953 0 0 1 22.21-38.199 50.66 50.66 0 0 1-4.245-20.608c-.05-28.514 23.025-51.666 51.537-51.715a51.627 51.627 0 0 1 41.146 20.33" fill="#139CD8"/><path d="M105.409 163.674a.526.526 0 0 0 .113.638c.526.319.957.639 1.484.958a15.863 15.863 0 0 0 7.981 1.804c5.428 0 8.828-2.873 8.828-7.551v-.111c0-4.358-3.831-5.859-7.454-7.024l-.399-.16c-2.667-.845-4.997-1.596-4.997-3.4v-.111c0-1.485 1.389-2.666 3.511-2.666 2.417.031 4.789.651 6.913 1.803a.494.494 0 0 0 .686-.111v-.111c.112-.32 1.07-2.763 1.07-2.986a.606.606 0 0 0-.208-.638 15.19 15.19 0 0 0-7.87-2.124h-.527c-4.997 0-8.509 2.985-8.509 7.343v.112c0 4.582 3.831 6.066 7.456 7.024l.526.207c2.666.846 4.901 1.485 4.901 3.304v.113c0 1.708-1.485 2.986-3.831 2.986a12.772 12.772 0 0 1-7.024-2.029c-.431-.207-.639-.431-.846-.527a.495.495 0 0 0-.686.112v.112l-1.118 3.033ZM185.211 163.674a.524.524 0 0 0 .111.638c.528.319.958.639 1.486.958a15.857 15.857 0 0 0 7.98 1.804c5.427 0 8.828-2.873 8.828-7.551v-.111c0-4.358-3.831-5.859-7.455-7.024l-.383-.16c-2.667-.845-4.997-1.596-4.997-3.4v-.111c0-1.485 1.388-2.666 3.513-2.666a14.9 14.9 0 0 1 6.911 1.803.495.495 0 0 0 .686-.111v-.111c.112-.32 1.07-2.763 1.07-2.986a.607.607 0 0 0-.207-.638 15.213 15.213 0 0 0-7.87-2.124h-.527c-4.997 0-8.508 2.985-8.508 7.343v.112c0 4.582 3.83 6.066 7.455 7.024l.526.207c2.666.846 4.901 1.485 4.901 3.304v.113c0 1.708-1.484 2.986-3.831 2.986a12.78 12.78 0 0 1-7.024-2.029c-.431-.207-.639-.431-.846-.527a.496.496 0 0 0-.687.112v.112l-1.132 3.033ZM244.417 149.627a11.517 11.517 0 0 0-2.027-3.943 11.003 11.003 0 0 0-3.511-2.666 13.015 13.015 0 0 0-9.786 0 10.938 10.938 0 0 0-3.512 2.666 9.926 9.926 0 0 0-2.028 3.943 19.158 19.158 0 0 0 0 9.785 11.51 11.51 0 0 0 2.028 3.943 10.963 10.963 0 0 0 3.512 2.666 13.006 13.006 0 0 0 9.786 0 9.572 9.572 0 0 0 3.511-2.666 9.892 9.892 0 0 0 2.027-3.943c.434-1.596.65-3.246.639-4.9a17.56 17.56 0 0 0-.639-4.901v.016Zm-4.581 4.884a11.26 11.26 0 0 1-1.484 6.178 4.791 4.791 0 0 1-4.471 2.124 5.098 5.098 0 0 1-4.469-2.124 13.524 13.524 0 0 1 0-12.34 4.786 4.786 0 0 1 4.469-2.123 5.098 5.098 0 0 1 4.471 2.123 11.013 11.013 0 0 1 1.484 6.178M281.772 162.189a.43.43 0 0 0-.51-.318c-.688.275-1.399.488-2.123.638-.809.126-1.625.195-2.443.207a6.992 6.992 0 0 1-5.22-1.915 8.679 8.679 0 0 1-1.915-6.273 9.913 9.913 0 0 1 1.707-5.955 5.862 5.862 0 0 1 5.109-2.236c1.619-.025 3.232.19 4.789.64a.465.465 0 0 0 .527-.32c.43-1.07.75-1.915 1.165-3.08a.431.431 0 0 0-.288-.528c-1-.348-2.032-.6-3.081-.75a30.167 30.167 0 0 0-3.4-.207 12.9 12.9 0 0 0-5.108.957 10.416 10.416 0 0 0-3.719 2.667 11.876 11.876 0 0 0-2.235 3.942 14.755 14.755 0 0 0-.751 4.901 13.408 13.408 0 0 0 2.986 9.052 11.553 11.553 0 0 0 9.051 3.399 17.538 17.538 0 0 0 6.498-1.166.493.493 0 0 0 .206-.526l-1.245-3.129ZM305.079 148.781a9.565 9.565 0 0 0-2.029-3.624 8.135 8.135 0 0 0-2.984-2.235 11.56 11.56 0 0 0-4.47-.846 12.528 12.528 0 0 0-5.108.957 9.955 9.955 0 0 0-3.513 2.666 12.236 12.236 0 0 0-2.122 4.039 18.11 18.11 0 0 0-.639 4.901 14.38 14.38 0 0 0 .75 4.902 9.078 9.078 0 0 0 2.235 3.942 12.109 12.109 0 0 0 3.831 2.555c1.795.691 3.718.979 5.637.845 2.674.16 5.345-.35 7.773-1.484.207-.112.32-.207.111-.751l-1.069-2.873a.353.353 0 0 0-.432-.254h-.111a14.51 14.51 0 0 1-6.385 1.165 7.797 7.797 0 0 1-5.316-1.804 7.221 7.221 0 0 1-1.804-5.109h15.436c.23.009.422-.17.432-.399.319-.112.845-3.192-.207-6.593h-.016Zm-15.309 3.192a8.48 8.48 0 0 1 1.277-3.623 4.789 4.789 0 0 1 4.357-2.236 4.985 4.985 0 0 1 4.359 2.236 7.642 7.642 0 0 1 1.069 3.623H289.77ZM181.539 148.781a9.597 9.597 0 0 0-2.028-3.624 8.139 8.139 0 0 0-2.985-2.235 11.567 11.567 0 0 0-4.47-.846 12.53 12.53 0 0 0-5.108.958 9.932 9.932 0 0 0-3.513 2.665 12.255 12.255 0 0 0-2.122 4.039 18.155 18.155 0 0 0-.639 4.901 14.353 14.353 0 0 0 .75 4.902 9.052 9.052 0 0 0 2.235 3.942 12.098 12.098 0 0 0 3.831 2.555c1.794.691 3.718.98 5.635.845 2.674.16 5.346-.35 7.775-1.484.207-.112.319-.207.111-.75l-1.197-2.842a.35.35 0 0 0-.431-.255h-.112a14.486 14.486 0 0 1-6.386 1.165 7.78 7.78 0 0 1-5.315-1.804 7.213 7.213 0 0 1-1.804-5.107h15.437a.415.415 0 0 0 .43-.399c.319-.113.846-3.193-.208-6.593l.114-.033Zm-15.438 3.224a8.53 8.53 0 0 1 1.277-3.623 4.788 4.788 0 0 1 4.359-2.235 4.982 4.982 0 0 1 4.358 2.235 7.624 7.624 0 0 1 1.07 3.623h-11.064ZM138.98 151.223c-.638 0-1.39-.112-2.442-.112a15.83 15.83 0 0 0-3.831.527 9.815 9.815 0 0 0-3.193 1.485 6.509 6.509 0 0 0-2.235 2.554 7.752 7.752 0 0 0-.846 3.512 7.136 7.136 0 0 0 .75 3.512 6.38 6.38 0 0 0 2.028 2.442 8.775 8.775 0 0 0 3.192 1.388c1.322.318 2.68.463 4.039.432 1.57.019 3.137-.125 4.677-.432 1.484-.207 3.4-.639 3.944-.75a6.8 6.8 0 0 0 1.069-.319.432.432 0 0 0 .319-.511v-14.143a8.702 8.702 0 0 0-2.442-6.816 10.768 10.768 0 0 0-7.136-2.124 18.375 18.375 0 0 0-4.15.431 15.136 15.136 0 0 0-4.789 1.709.48.48 0 0 0-.112.639l1.07 2.985a.35.35 0 0 0 .425.256l.006-.001h.112a.337.337 0 0 0 .207-.111 16.24 16.24 0 0 1 6.657-1.597 6.384 6.384 0 0 1 3.83.958c.847.639 1.278 1.596 1.278 3.72v.639l-2.443-.208.016-.065Zm-6.082 10.919a2.92 2.92 0 0 1-.846-.957 3.975 3.975 0 0 1 .846-4.997 6.5 6.5 0 0 1 4.47-1.07c1.389.004 2.776.111 4.15.32v7.024c-1.369.28-2.755.456-4.15.526a6.885 6.885 0 0 1-4.47-.846ZM263.479 143.241a.382.382 0 0 0-.176-.51 9.394 9.394 0 0 0-2.555-.431 7.714 7.714 0 0 0-3.942.638 6.748 6.748 0 0 0-2.554 1.916v-1.916a.464.464 0 0 0-.432-.431h-4.15a.463.463 0 0 0-.431.431v23.083c.015.232.2.416.431.432h4.039a.464.464 0 0 0 .431-.432v-11.493a13.854 13.854 0 0 1 .527-4.039 4.8 4.8 0 0 1 1.388-2.235 4.45 4.45 0 0 1 1.916-1.165 7.824 7.824 0 0 1 2.028-.319 7.977 7.977 0 0 1 1.707.207.48.48 0 0 0 .528-.415c.319-.75 1.069-2.873 1.277-3.304" fill="#fff"/><path d="m225.373 132.61-1.484-.319c-.7-.133-1.41-.203-2.123-.208a8.504 8.504 0 0 0-6.497 2.346 13.45 13.45 0 0 0-3.081 7.024l-.207 1.07h-3.512a.558.558 0 0 0-.527.431l-.527 3.193a.462.462 0 0 0 .367.526h3.575l-3.511 19.251a19.987 19.987 0 0 1-.958 3.833 7.309 7.309 0 0 1-1.069 2.234c-.332.5-.821.877-1.39 1.07-.582.18-1.195.25-1.803.208-.319 0-.846-.111-1.277-.111a2.85 2.85 0 0 1-.846-.319.446.446 0 0 0-.527.207c-.111.319-1.069 2.873-1.165 3.08a.478.478 0 0 0 .207.638c.454.175.918.319 1.39.432a8.7 8.7 0 0 0 2.235.207 10.625 10.625 0 0 0 3.831-.639 7.467 7.467 0 0 0 2.874-2.026 10.72 10.72 0 0 0 2.026-3.401 36.228 36.228 0 0 0 1.389-5.219l3.513-19.684h5.043a.558.558 0 0 0 .528-.431l.526-3.192a.462.462 0 0 0-.366-.527h-5.061c.145-1.2.429-2.378.846-3.512a3.766 3.766 0 0 1 1.07-1.596c.373-.354.805-.64 1.277-.846a8.319 8.319 0 0 1 1.708-.208c.431 0 .958.112 1.277.112.26.022.515.093.75.207.527.112.527 0 .638-.207l1.166-3.193c.111-.208-.208-.319-.319-.43M156.475 166.021a.464.464 0 0 1-.43.432h-4.039a.464.464 0 0 1-.431-.432v-32.948a.462.462 0 0 1 .431-.431h3.943c.231.015.415.2.43.431v32.979l.096-.031Z" fill="#fff"/></svg>