<svg width="400" height="400" viewBox="0 0 400 400" fill="none" xmlns="http://www.w3.org/2000/svg"><path d="M400 0H0v400h400V0Z" fill="#fff"/><path fill-rule="evenodd" clip-rule="evenodd" d="M177.639 125.912c8.598-8.956 20.575-14.518 33.816-14.518 17.601 0 32.962 9.817 41.139 24.39a56.876 56.876 0 0 1 23.256-4.943c31.749 0 57.484 25.963 57.484 57.994 0 32.032-25.735 57.994-57.484 57.994-3.881 0-7.667-.388-11.327-1.126-7.201 12.841-20.931 21.521-36.684 21.521-6.594 0-12.832-1.517-18.382-4.232-7.303 17.178-24.314 29.217-44.138 29.217-20.642 0-38.24-13.066-44.992-31.384a44.292 44.292 0 0 1-9.149.954c-24.583.003-44.51-20.133-44.51-44.972a45.036 45.036 0 0 1 22.255-38.955 51.506 51.506 0 0 1-4.258-20.57c0-28.57 23.188-51.726 51.793-51.726a51.703 51.703 0 0 1 41.181 20.356Z" fill="#00A1E0"/><path fill-rule="evenodd" clip-rule="evenodd" d="m105.293 202.353 1.078-2.995c.173-.514.56-.345.718-.248.301.178.516.338.904.566a12.945 12.945 0 0 0 7.043 2.03c2.38 0 3.856-1.26 3.856-2.96v-.088c0-1.849-2.275-2.549-4.903-3.354l-.583-.187c-3.607-1.026-7.466-2.511-7.466-7.078v-.093c0-4.334 3.497-7.359 8.501-7.359l.549-.005c2.94 0 5.78.854 7.839 2.102.187.117.368.333.263.619l-1.108 2.995c-.196.51-.73.172-.73.172a15.783 15.783 0 0 0-6.946-1.782c-2.124 0-3.489 1.126-3.489 2.654v.096c0 1.782 2.339 2.543 5.052 3.427l.466.146c3.596 1.137 7.434 2.712 7.434 7.043v.09c0 4.682-3.4 7.589-8.868 7.589-2.687 0-5.256-.414-7.974-1.857-.514-.298-1.021-.555-1.523-.919-.052-.076-.282-.166-.116-.604h.003Zm80.077 0 1.082-2.995c.157-.49.615-.31.714-.248.298.183.519.338.904.566 3.185 2.009 6.125 2.03 7.053 2.03 2.371 0 3.849-1.26 3.849-2.96v-.088c0-1.849-2.272-2.549-4.899-3.354l-.584-.187c-3.613-1.026-7.471-2.511-7.471-7.078v-.093c0-4.334 3.499-7.359 8.504-7.359l.545-.005c2.94 0 5.783.854 7.846 2.102.18.117.364.333.262.619-.102.265-1.012 2.715-1.109 2.995-.201.51-.728.172-.728.172a15.786 15.786 0 0 0-6.95-1.782c-2.124 0-3.489 1.126-3.489 2.654v.096c0 1.782 2.336 2.543 5.052 3.427l.467.146c3.596 1.137 7.431 2.712 7.431 7.043v.09c0 4.682-3.398 7.589-8.866 7.589-2.689 0-5.259-.414-7.974-1.857-.513-.298-1.021-.555-1.525-.919-.053-.076-.283-.166-.114-.604Zm59.233-14.084c.45 1.505.671 3.159.671 4.906 0 1.75-.221 3.398-.671 4.902a10.996 10.996 0 0 1-2.07 3.97 9.89 9.89 0 0 1-3.512 2.642c-1.4.642-3.045.963-4.894.963-1.849 0-3.499-.321-4.893-.963a9.873 9.873 0 0 1-3.512-2.642 11.065 11.065 0 0 1-2.073-3.966 17.213 17.213 0 0 1-.671-4.906c0-1.75.224-3.401.671-4.906.449-1.516 1.146-2.852 2.07-3.966a10.045 10.045 0 0 1 3.515-2.666c1.396-.653 3.039-.983 4.893-.983 1.855 0 3.497.33 4.894.983 1.394.651 2.578 1.546 3.512 2.666.927 1.114 1.627 2.45 2.07 3.966Zm-4.561 4.906c0-2.646-.49-4.725-1.464-6.183-.963-1.446-2.421-2.146-4.451-2.146-2.029 0-3.476.7-4.427 2.146-.954 1.458-1.441 3.537-1.441 6.183 0 2.642.487 4.736 1.447 6.206.945 1.464 2.392 2.173 4.421 2.173 2.03 0 3.488-.712 4.451-2.173.968-1.47 1.464-3.564 1.464-6.206Zm42.061 7.67 1.12 3.097c.146.38-.184.546-.184.546-1.729.67-4.129 1.149-6.465 1.149-3.961 0-6.994-1.14-9.018-3.392-2.013-2.246-3.039-5.299-3.039-9.088 0-1.753.253-3.412.749-4.914.496-1.516 1.24-2.852 2.22-3.966a10.54 10.54 0 0 1 3.677-2.666c1.458-.65 3.173-.977 5.087-.977 1.291 0 2.441.079 3.426.225 1.053.163 2.456.542 3.048.773.108.04.409.186.286.539-.431 1.216-.726 2.01-1.126 3.118-.175.472-.53.315-.53.315-1.503-.473-2.943-.688-4.824-.688-2.261 0-3.958.752-5.066 2.225-1.12 1.484-1.747 3.43-1.756 6.016-.009 2.838.703 4.941 1.963 6.241 1.257 1.299 3.013 1.955 5.223 1.955.896 0 1.741-.059 2.502-.179.753-.119 1.459-.352 2.124-.612 0 0 .429-.16.583.283Zm23.361-13.436c.995 3.482.475 6.489.458 6.655-.038.397-.447.403-.447.403l-15.454-.012c.097 2.348.659 4.011 1.797 5.139 1.117 1.105 2.89 1.814 5.29 1.817 3.669.008 5.235-.729 6.346-1.14 0 0 .424-.152.584.268l1.006 2.832c.204.475.041.641-.131.738-.969.533-3.317 1.531-7.784 1.543-2.167.008-4.054-.301-5.609-.905a10.207 10.207 0 0 1-3.887-2.575 10.192 10.192 0 0 1-2.243-3.928 16.628 16.628 0 0 1-.697-4.935c0-1.75.225-3.412.676-4.932.452-1.531 1.155-2.881 2.091-4.016a10.165 10.165 0 0 1 3.561-2.712c1.418-.668 3.174-.995 5.104-.995 1.654 0 3.165.357 4.422.899.968.414 1.942 1.164 2.939 2.236.63.677 1.59 2.159 1.978 3.62Zm-15.37 3.229h11.024c-.113-1.418-.39-2.69-1.026-3.646-.968-1.446-2.304-2.243-4.331-2.243-2.03 0-3.471.797-4.425 2.243-.623.956-1.026 2.176-1.245 3.646h.003Zm-108.419-3.229c.991 3.482.481 6.489.464 6.655-.041.397-.45.403-.45.403l-15.457-.012c.099 2.348.659 4.011 1.799 5.139 1.118 1.105 2.888 1.814 5.288 1.817 3.669.008 5.241-.729 6.349-1.14 0 0 .423-.152.581.268l1.009 2.832c.204.475.041.641-.129.738-.974.533-3.324 1.531-7.786 1.543-2.17.008-4.058-.301-5.609-.905a10.241 10.241 0 0 1-3.89-2.575 10.227 10.227 0 0 1-2.238-3.928 16.591 16.591 0 0 1-.702-4.935c0-1.75.227-3.412.676-4.932a11.322 11.322 0 0 1 2.094-4.016 10.172 10.172 0 0 1 3.559-2.712c1.423-.668 3.178-.995 5.103-.995a11.247 11.247 0 0 1 4.428.899c.967.414 1.942 1.164 2.936 2.236.63.677 1.59 2.159 1.975 3.62Zm-15.373 3.229h11.03c-.117-1.418-.394-2.69-1.027-3.646-.962-1.446-2.304-2.243-4.33-2.243-2.03 0-3.474.797-4.422 2.243-.63.956-1.029 2.176-1.254 3.646h.003Zm-27.257-.739s1.219.109 2.549.301v-.653c0-2.062-.429-3.033-1.272-3.684-.863-.659-2.152-1-3.821-1 0 0-3.762-.047-6.736 1.569-.137.082-.251.129-.251.129s-.374.131-.508-.252l-1.093-2.94c-.169-.422.137-.615.137-.615 1.391-1.085 4.763-1.741 4.763-1.741a25.465 25.465 0 0 1 4.143-.382c3.086 0 5.475.717 7.099 2.138 1.628 1.426 2.456 3.724 2.456 6.822l.009 14.138s.032.409-.356.502c0 0-.569.158-1.079.277a88.28 88.28 0 0 1-3.896.755c-1.552.26-3.123.391-4.696.391-1.502 0-2.879-.14-4.092-.417a8.5 8.5 0 0 1-3.147-1.365 6.386 6.386 0 0 1-2.012-2.418c-.476-.971-.714-2.157-.714-3.528 0-1.345.282-2.543.828-3.564a7.447 7.447 0 0 1 2.245-2.549 10.002 10.002 0 0 1 3.223-1.496 14.798 14.798 0 0 1 3.809-.488c.971 0 1.782.021 2.412.07Zm-6.151 10.862c-.009-.003 1.385 1.093 4.532.901a31.511 31.511 0 0 0 4.17-.554v-7.029s-1.977-.324-4.196-.356c-3.147-.038-4.489 1.12-4.48 1.117-.927.659-1.379 1.636-1.379 2.989 0 .867.154 1.543.467 2.016.195.312.28.428.886.916Zm130.818-18.826c-.146.423-.896 2.54-1.167 3.243-.099.268-.262.452-.562.42 0 0-.887-.204-1.698-.204-.557 0-1.353.07-2.071.292a4.621 4.621 0 0 0-1.907 1.146c-.566.545-1.024 1.312-1.356 2.275-.338.967-.513 2.507-.513 4.053v11.514a.48.48 0 0 1-.136.332.462.462 0 0 1-.331.138h-4.057a.484.484 0 0 1-.181-.033.484.484 0 0 1-.297-.434v-23.054c0-.26.189-.467.449-.467h3.958c.262 0 .448.207.448.467v1.884c.593-.794 1.654-1.494 2.614-1.925.962-.438 2.039-.758 3.984-.641 1.012.061 2.327.338 2.592.44a.414.414 0 0 1 .232.228.416.416 0 0 1-.001.326Zm-38.118-10.683c.107.044.402.186.286.536l-1.187 3.246c-.1.245-.164.392-.668.24a6.97 6.97 0 0 0-2.062-.321c-.613 0-1.167.079-1.657.242a3.16 3.16 0 0 0-1.295.799 4.51 4.51 0 0 0-1.085 1.65c-.568 1.634-.787 3.375-.816 3.486h4.94c.417 0 .549.192.508.498l-.578 3.215c-.093.466-.516.449-.516.449h-5.092l-3.479 19.703a30.533 30.533 0 0 1-1.359 5.192c-.546 1.426-1.109 2.467-2.013 3.461a7.086 7.086 0 0 1-2.855 1.989c-1.071.394-2.371.595-3.792.595-.676 0-1.405-.014-2.266-.218-.479-.11-.952-.248-1.414-.415-.19-.067-.344-.308-.234-.618.105-.306 1.021-2.811 1.144-3.141.157-.397.56-.245.56-.245.274.117.466.193.831.266.37.072.866.137 1.243.137.673 0 1.286-.082 1.819-.263.642-.207 1.021-.583 1.412-1.084.408-.529.741-1.243 1.082-2.203.341-.971.653-2.254.922-3.809l3.464-19.345h-3.412c-.409 0-.549-.192-.502-.501l.572-3.214c.09-.467.525-.449.525-.449h3.503l.189-1.044c.525-3.103 1.566-5.463 3.106-7.012 1.549-1.56 3.751-2.347 6.545-2.347.799 0 1.505.052 2.102.16.586.111 1.033.213 1.529.365Zm-69.05 33.422c0 .263-.181.47-.444.47h-4.097c-.263 0-.441-.21-.441-.467v-32.994c0-.253.181-.463.438-.463h4.1c.263 0 .444.21.444.466v32.988Z" fill="#fff"/></svg>