<svg width="400" height="400" viewBox="0 0 400 400" fill="none" xmlns="http://www.w3.org/2000/svg"><path fill="#fff" d="M0 0h400v400H0z"/><path fill-rule="evenodd" clip-rule="evenodd" d="M66.667 265.249H201.44l131.894-131.916H66.667v131.916Z" fill="url(#a)"/><path fill-rule="evenodd" clip-rule="evenodd" d="M224.922 159.717h-26.339l.089 61.942-22.935-61.964h-22.738l-19.578 51.749c-2.078-13.168-15.694-17.71-26.406-21.115-7.073-2.271-14.58-5.613-14.505-9.307.06-3.031 4.016-5.843 11.882-5.421 5.276.282 9.937.704 19.211 5.187l9.115-15.887c-8.452-4.306-20.145-7.021-29.73-7.033h-.059c-11.179 0-20.486 3.62-26.255 9.586-4.02 4.164-6.187 9.459-6.28 15.313-.148 8.055 2.809 13.764 9.01 18.329 5.24 3.842 11.946 6.336 17.852 8.162 7.284 2.26 13.238 4.224 13.164 8.403a6.187 6.187 0 0 1-1.73 4.098c-1.816 1.875-4.602 2.579-8.459 2.657-7.436.155-12.945-1.012-21.73-6.206l-8.114 16.095c8.777 4.99 18.092 7.491 28.673 7.491l2.379-.015c9.211-.166 16.688-2.375 22.627-7.15.341-.275.645-.552.963-.83l-1 5.135 22.223-.07 3.987-10.208c4.19 1.43 8.959 2.223 14.016 2.223 4.932 0 9.571-.752 13.683-2.097l2.779 10.082 39.867.037.096-23.268h8.485c20.507 0 32.627-10.438 32.627-27.937-.004-19.492-11.79-27.981-36.87-27.981Zm-60.667 52.946a23.804 23.804 0 0 1-8.407-1.471l8.315-26.25h.163l8.177 26.324a24.597 24.597 0 0 1-8.248 1.397Zm62.209-15.08h-5.788v-21.156h5.791c7.707 0 13.865 2.568 13.865 10.441-.007 8.151-6.154 10.715-13.865 10.715" fill="#fff"/><defs><linearGradient id="a" x1="199.998" y1="133.333" x2="199.998" y2="265.253" gradientUnits="userSpaceOnUse"><stop stop-color="#00AEEF"/><stop offset=".212" stop-color="#0097DC"/><stop offset=".519" stop-color="#007CC5"/><stop offset=".792" stop-color="#006CB8"/><stop offset="1" stop-color="#0066B3"/></linearGradient></defs></svg>