<svg width="400" height="400" viewBox="0 0 400 400" fill="none" xmlns="http://www.w3.org/2000/svg"><path d="M400 0H0v400h400V0Z" fill="#FA6423"/><path d="M198.595 306.658c-23.917 0-43.308-19.389-43.308-43.306 0-23.919 19.391-43.308 43.308-43.308s43.307 19.389 43.307 43.308c0 23.917-19.39 43.306-43.307 43.306Zm43.933-136.117c-13.769 10.388-16.435 28.721-16.842 41.113-21.764-25.17 40.309-99.221-30.226-144.987 43.662 56.505-62.127 112.056-62.127 195.297 0 32.63 20.389 61.388 65.172 71.369 43.93-9.354 65.607-38.739 65.607-71.367 0-48.653-30.29-64.93-21.584-91.425Z" fill="#fff"/></svg>