<svg width="400" height="400" viewBox="0 0 400 400" fill="none" xmlns="http://www.w3.org/2000/svg"><path d="M0 0h400v400H0V0Z" fill="#30C0D8"/><path fill-rule="evenodd" clip-rule="evenodd" d="m327.999 251.633-.005-5.516-4.445.705v-16.733l-6.083.961-.011 22.25 10.544-1.667Zm-13.339 2.111.012-22.25-6.067.962v22.25l6.055-.962Zm-15.444-13.572 1.2 8.056-2.422.389 1.222-8.445Zm-2.25 16.378.444-3.35 3.584-.567.472 3.2 6.128-.966-4.972-21.467-7.15 1.133-4.723 23 6.217-.983Zm-18.872 2.989 4.1-.65 2.6-16.889.566 16.389 5.239-.833-1.583-22-7.056 1.116-1.877 12.034-1.873-11.439-7.094 1.122-1.556 22.5 5.217-.828.517-16.583 2.8 16.055v.006Zm-10.172 1.611v-5.75l-4.695.744.017-3.066 4.239-.667-.017-5.211-4.239.667.022-2.834 4.684-.744V238.9l-10.75 1.7-.011 22.25 10.75-1.7Zm-28.762-13.078c.075-.015.15-.033.223-.055.066-.018.132-.033.2-.045.666-.105 1.177-.033 1.544.211.367.25.595.684.695 1.311.172 1.089.055 1.962-.35 2.623-.4.655-1.062 1.055-1.984 1.205l-.333.056v-5.306h.005Zm-.011 17.634-.027-8.989 2.761 8.555 6.422-1.016-4.183-9.078a5.527 5.527 0 0 0 2.966-2.784c.589-1.261.739-2.777.461-4.555-.322-2.033-1.155-3.372-2.5-4.022-1.35-.65-3.633-.723-6.844-.211l-5.111.811-.011 22.25 6.066-.961Zm-18.039-8.528c0-1.411.078-2.645.245-3.695a4.064 4.064 0 0 1 .572-1.733 1.604 1.604 0 0 1 1.106-.683 1.04 1.04 0 0 1 1.055.416c.335.526.54 1.124.6 1.745.189 1.228.295 2.539.306 3.939.016 1.389-.067 2.6-.239 3.611a4.57 4.57 0 0 1-.583 1.755 1.482 1.482 0 0 1-1.028.678c-.478.078-.856-.055-1.128-.389-.278-.339-.483-.916-.611-1.728a25.67 25.67 0 0 1-.295-3.916Zm6.039 9.916c1.056-.8 1.906-1.888 2.556-3.261a16.054 16.054 0 0 0 1.361-5.139 22.27 22.27 0 0 0-.15-5.977c-.4-2.523-1.333-4.411-2.789-5.678-1.461-1.267-3.239-1.739-5.333-1.406-1.467.234-2.722.745-3.767 1.545-1.05.794-1.911 1.889-2.583 3.272a15.764 15.764 0 0 0-1.361 5.122 22.376 22.376 0 0 0 .15 6c.389 2.467 1.327 4.345 2.811 5.634 1.483 1.288 3.255 1.772 5.305 1.444 1.478-.233 2.745-.75 3.8-1.556Zm-17.889 3.345.006-8.4 4.106-.65-.023-5.239-4.072.644-.005-3.211 4.711-.75v-5.389l-10.75 1.7-.011 22.25 6.033-.955h.005Zm124.056-9.789-266.65 41.106v-40.567l266.644-41.111v40.572h.006Zm-30.472-44.539-.017-111.255 30.328-4.8-.056 111.261-30.255 4.794Zm-60.889-46.667-22.989-51.305 31.372-4.967 7.9 28.239 7.934-30.75 31.522-4.989-23.034 58.589 25.134 52.333-32.111 5.089-9.445-27.844-9.294 30.811-32.111 5.083 25.122-60.294v.005Zm-111.5 73.973 23.622-115 35.756-5.667 24.85 107.322-30.628 4.856-2.389-16.011-17.911 2.839-2.222 16.738-31.078 4.923Zm-14.956 2.366-30.477 4.828-.05-83.055-18.061 2.861.027-28.2 66.534-10.534-.028 28.195-17.995 2.85.05 83.055Zm51.178-46.966 12.111-1.923-5.994-40.277-6.117 42.2Z" fill="#fff"/></svg>