<svg width="72" height="72" viewBox="0 0 72 72" fill="none" xmlns="http://www.w3.org/2000/svg">
<rect width="72" height="72" fill="white"/>
<path fill-rule="evenodd" clip-rule="evenodd" d="M52.823 36.2976C52.823 42.0142 50.367 47.157 46.4501 50.7288V30.3315H51.8949C52.4974 32.2111 52.823 34.2156 52.823 36.2976Z" fill="#8AECB9"/>
<path fill-rule="evenodd" clip-rule="evenodd" d="M13.9172 36.2976C13.9172 25.5941 22.5941 16.9172 33.2976 16.9172C41.303 16.9172 48.1748 21.771 51.1305 28.6963H45.6366H44.8149V29.5179V51.886C41.595 54.2689 37.6109 55.678 33.2976 55.678C22.5941 55.678 13.9172 47.0011 13.9172 36.2976ZM44.8149 54.2154C41.4944 56.3542 37.5409 57.5952 33.2976 57.5952C21.5353 57.5952 12 48.0599 12 36.2976C12 24.5353 21.5353 15 33.2976 15C42.382 15 50.1379 20.6877 53.1986 28.6963H59.1959H60.0175V29.5179V56.6366V57.4582H59.1959H45.6366H44.8149V56.6366V54.2154ZM53.7506 30.3396H58.3742V55.8149H46.4582V53.0434C51.4133 49.1438 54.5952 43.0923 54.5952 36.2976C54.5952 34.2295 54.3004 32.2303 53.7506 30.3396ZM51.7449 30.3396C52.3507 32.2167 52.678 34.2189 52.678 36.2976C52.678 41.9205 50.2833 46.9842 46.4582 50.5243V30.3396H51.7449Z" fill="#0C193D"/>
</svg>
