<svg width="72" height="72" viewBox="0 0 72 72" fill="none" xmlns="http://www.w3.org/2000/svg">
<rect width="72" height="72" fill="#20220D"/>
<path fill-rule="evenodd" clip-rule="evenodd" d="M48.2191 14.3295C48.672 14.5758 49.1164 14.8359 49.5516 15.1092C49.5546 15.2251 49.5561 15.3413 49.5561 15.4579V36.2566C49.5561 43.4891 43.6931 49.3521 36.4606 49.3521C35.4909 49.3521 34.5458 49.2467 33.6361 49.0467V47.7284C34.5411 47.9505 35.4871 48.0682 36.4606 48.0682C42.984 48.0682 48.2723 42.78 48.2723 36.2566V15.4579C48.2723 15.0773 48.2543 14.7009 48.2191 14.3295ZM36.4606 52.4334C35.4971 52.4334 34.5533 52.3492 33.6361 52.1877V53.49C34.5555 53.6395 35.499 53.7173 36.4606 53.7173C46.1039 53.7173 53.9213 45.8999 53.9213 36.2566V18.5999C53.5078 18.1849 53.0795 17.7846 52.6374 17.3998V36.2566C52.6374 45.1908 45.3948 52.4334 36.4606 52.4334ZM36.4606 44.7302C35.4703 44.7302 34.5196 44.5603 33.6361 44.248V41.1499C34.467 41.6306 35.4317 41.9057 36.4606 41.9057C39.5805 41.9057 42.1097 39.3765 42.1097 36.2566V12C43.0742 12.2262 44.017 12.509 44.9342 12.8447V36.2566C44.9342 40.9364 41.1405 44.7302 36.4606 44.7302ZM36.4606 18.7963C37.4223 18.7963 38.3658 18.874 39.2852 19.0236V20.3259C38.368 20.1644 37.4242 20.0801 36.4606 20.0801C27.5265 20.0801 20.2839 27.3227 20.2839 36.2569V53.9743C20.2839 54.1876 20.288 54.3998 20.2962 54.6111C19.8497 54.223 19.4174 53.8191 19 53.4003V36.2569C19 26.6137 26.8174 18.7963 36.4606 18.7963ZM36.4606 23.1614C37.4304 23.1614 38.3755 23.2668 39.2852 23.4668V24.7852C38.3802 24.5631 37.4342 24.4453 36.4606 24.4453C29.9373 24.4453 24.649 29.7335 24.649 36.2569V57.0556C24.649 57.2548 24.654 57.4529 24.6637 57.6496C24.2225 57.4087 23.7895 57.1547 23.3652 56.8881V36.2569C23.3652 29.0245 29.2282 23.1614 36.4606 23.1614ZM36.4606 27.7834C37.451 27.7834 38.4018 27.9533 39.2852 28.2656V31.3637C38.4543 30.883 37.4896 30.6079 36.4606 30.6079C33.3408 30.6079 30.8116 33.137 30.8116 36.2569V60.0001C29.8471 59.774 28.9043 59.4912 27.9871 59.1554V36.2569C27.9871 31.5771 31.7808 27.7834 36.4606 27.7834Z" fill="#FBFBE1"/>
</svg>
