<svg width="72" height="72" fill="none" xmlns="http://www.w3.org/2000/svg"><path fill="#fff" d="M0 0h72v72H0z"/><path d="M54.54 32.016c1.257-1.257 2.651-.887 2.651.333 0 1.19-1.427 2.476-3.15 3.472-.165.095-.365.204-.564.304a4.6 4.6 0 01-.104-1.001c0-1.02.431-2.372 1.167-3.108zm-6.708 12.838c-1.67 1.67-3.805-.46-1.315-2.951.565-.565 1.49-1.186 2.453-1.75.55 1.36.114 3.444-1.138 4.7zm-10.641-6.69c-1.281 0-2.111-1.536-1.855-3.434.251-1.898 1.494-3.435 2.775-3.435 1.186 0 1.983 1.32 1.893 3.022-.033.247-.062.484-.085.712-.337 1.755-1.518 3.136-2.728 3.136zm-16.917-.63c-.418.417-.93.64-1.447.64-.484 0-.902-.218-1.248-.564-1.186-1.186-1.082-4.094.441-5.622.432-.432.954-.683 1.49-.683.479 0 .901.213 1.247.56 1.115 1.114 1.182 4.004-.483 5.669zm39.66.621s-.475-.664-.622-.854c-.1-.123-.223-.275-.55-.052-.721.484-1.532.925-2.534.925-.763 0-1.432-.194-1.93-.617.208-.095.427-.199.65-.317 1.18-.64 2.168-1.452 2.642-1.927 2.3-2.3 1.58-5.73-1.224-5.73-2.647 0-4.74 2.58-4.74 5.446 0 .432.053 1.048.238 1.703-.156.076-1.205.584-2.462 1.276-1.181-.887-3.027-.489-3.027-.489 1.713-2.428 4.289-6.224 4.507-6.537.157-.223.133-.446-.019-.797-.194-.422-.389-.498-.655-.498h-5.35c-.176 0-.314.08-.366.28a12.25 12.25 0 00-.18 1.105c-.024.233.194.375.422.375h3.876l-3.506 5.015a.262.262 0 00-.067.075c-.507.736-1.29 1.765-2.23 1.765-.583 0-1.304-.417-1.304-1.783 0-1.338.54-4.166.935-6.367.042-.237-.038-.47-.418-.47h-.949c-.218 0-.341.133-.374.318-.057.337-.114.67-.171.987-.47-.897-1.22-1.404-2.306-1.404-1.005 0-1.987.375-2.79 1.172-2.001 2.002-1.622 5.265-3.349 6.992-.744.745-1.589.517-1.589-.949 0-1.674.64-3.539 1.376-5.308.128-.313-.01-.574-.147-.778-.195-.285-.27-.437-.622-.437-.545 0-1.418.347-3.164.347-.37 0-.726-.015-1.043-.038.018-.261.023-.437.028-.503.01-.247-.076-.403-.337-.403h-.892c-.322 0-.403.151-.44.403-.153 1.067-.442 4.986-2.406 6.95-.228.228-.365.299-.365.299.488-.959.754-2.216.754-3.212 0-2.804-1.66-4.54-3.743-4.54-.636 0-1.31.204-1.94.598.294-1.708.564-3.307.659-3.848.08-.455-.085-.692-.204-.882-.2-.308-.375-.446-.64-.446H14.29c-.175 0-.308.123-.35.318-.053.228-.162.825-.176 1.1-.01.242.156.332.35.332h2.25c-.361 2.206-1.044 6.48-1.253 7.553-.26 1.366-1.233 3.04-2.87 3.634-.204.076-.29.26-.214.48.076.217.356.787.442.934.085.151.275.251.455.19a6.058 6.058 0 002.244-1.395c.152-.152.299-.323.441-.508.736 1.651 2.23 2.254 3.762 2.254 1.732 0 3.6-.603 4.91-1.917 1.533-1.528 2.173-4.061 2.443-5.854.38.052.812.095 1.224.095a8.826 8.826 0 001.936-.223s-1.063 2.818-1.063 4.896c0 2.343 1.12 3.007 2.363 3.007 1.276 0 2.173-.958 2.813-2.144.166.37.413.811.75 1.148.578.579 1.295.996 2.329.996 1.181 0 2.196-.683 2.918-1.731.128.44.327.81.597 1.081.366.366 1.034.65 1.874.65 1.442 0 2.277-1.081 4.521-1.081.285 0 .541.042.773.123-1.029.626-2.006 1.3-2.604 1.898-1.85 1.85-1.936 4.283-.721 5.498 1.47 1.47 3.567.735 4.877-.574 1.532-1.532 1.978-4.431 1.09-6.414 1.073-.565 1.97-.982 2.183-1.082.669.916 1.78 1.632 3.61 1.632 1.31 0 2.629-.465 3.658-1.243a.356.356 0 00.08-.498z" fill="#212123"/></svg>