<svg width="72" height="72" viewBox="0 0 72 72" fill="none" xmlns="http://www.w3.org/2000/svg">
<rect width="72" height="72" fill="#1856ED"/>
<path fill-rule="evenodd" clip-rule="evenodd" d="M42.9088 31.6457C43.3345 32.9229 44.5266 33.6892 45.889 33.6892C46.2296 33.6892 46.5702 33.6041 46.9108 33.5189C48.5286 32.9229 49.3801 31.1348 48.784 29.517C47.7622 26.7071 45.6335 24.4932 42.6534 23.1309C41.1207 22.4497 39.2474 23.1309 38.4811 24.6635C37.7999 26.1962 38.4811 28.0695 40.0138 28.8358C41.5464 29.517 42.4831 30.4536 42.9088 31.6457Z" fill="#FF9E1A"/>
<path fill-rule="evenodd" clip-rule="evenodd" d="M41.887 12.0616C40.184 11.721 38.5662 12.8279 38.2256 14.5309C37.885 16.2338 38.992 17.8516 40.6949 18.1922C47.7622 19.5546 52.5305 24.3229 53.7226 31.2199C53.978 32.7526 55.3404 33.7744 56.7879 33.7744C56.9582 33.7744 57.1285 33.7744 57.2988 33.6892C59.0018 33.3486 60.1087 31.7308 59.8533 30.113C58.2355 20.7467 51.5087 13.9348 41.887 12.0616Z" fill="#FF9E1A"/>
<path fill-rule="evenodd" clip-rule="evenodd" d="M33.9682 43.2258C31.1583 43.2258 28.7742 40.9268 28.7742 38.0317C28.7742 35.2219 31.0732 32.8377 33.9682 32.8377C35.6712 32.8377 37.1187 31.4753 37.1187 29.6872C37.1187 27.8991 35.7563 26.5367 33.9682 26.5367C27.6672 26.5367 22.5583 31.6456 22.5583 37.9466C22.5583 44.2476 27.6672 49.3565 33.9682 49.3565C40.2692 49.3565 45.3781 44.2476 45.3781 37.9466C45.3781 36.2436 44.0157 34.7961 42.2276 34.7961C40.5246 34.7961 39.0771 36.1585 39.0771 37.9466C39.1622 40.9268 36.7781 43.2258 33.9682 43.2258Z" fill="white"/>
<path fill-rule="evenodd" clip-rule="evenodd" d="M52.786 34.9664C51.083 34.9664 49.6355 36.3288 49.6355 38.1169C49.6355 46.802 42.5682 53.8693 33.8831 53.8693C25.198 53.8693 18.1307 46.802 18.1307 38.1169C18.1307 29.4318 25.198 22.3645 33.8831 22.3645C35.586 22.3645 37.0336 21.0021 37.0336 19.214C37.0336 17.5111 35.6712 16.0635 33.8831 16.0635C21.8772 16.0635 12 25.9407 12 38.0318C12 50.1228 21.8772 60 33.9682 60C46.0593 60 55.9365 50.1228 55.9365 38.0318C55.9365 36.3288 54.5741 34.9664 52.786 34.9664Z" fill="white"/>
</svg>
