<svg width="72" height="72" fill="none" xmlns="http://www.w3.org/2000/svg"><path fill="#E51635" d="M0 0h72v72H0z"/><path opacity=".66" fill-rule="evenodd" clip-rule="evenodd" d="M27.888 31.13a4.351 4.351 0 014.35 4.27 2.561 2.561 0 005.12 0h1.788a4.35 4.35 0 01-8.7 0 2.561 2.561 0 00-5.118 0h-1.79a4.352 4.352 0 014.35-4.27" fill="#fff"/><path fill-rule="evenodd" clip-rule="evenodd" d="M46.456 31.123V35.4c0 .015 0 .029-.002.043a2.562 2.562 0 01-5.115.008c-.002-.016-.003-4.326-.003-4.343h-1.789v4.335a4.352 4.352 0 008.698.01l.001-.053v-4.277h-1.79zM21.128 27v12.648h1.792L22.92 27h-1.79zm31.746 10.96a2.565 2.565 0 01-2.565-2.56c.044-1.376 1.225-2.48 2.612-2.48a2.56 2.56 0 012.264 1.364 2.564 2.564 0 01-2.311 3.677zm4.397 1.707v-1.61-2.676a4.352 4.352 0 00-5.593-4.07 4.242 4.242 0 00-3.102 3.967c-.003.04-.003.081-.004.122h.001a4.242 4.242 0 006.909 3.293v.974h1.79zm-29.383.002a4.35 4.35 0 004.35-4.269 2.562 2.562 0 015.118-.028l.001 9.438h1.789v-9.43a4.35 4.35 0 00-8.7.02 2.56 2.56 0 01-5.117 0h-1.791a4.351 4.351 0 004.35 4.27" fill="#fff"/><path d="M18.372 34.402a2.006 2.006 0 00-.783-1.087 2.274 2.274 0 00-1.356-.418c-.56 0-1.05.157-1.471.47-.264.195-.51.54-.735 1.035h4.345zm2.004 1.577h-6.439c.094.569.342 1.02.746 1.355.403.336.92.503 1.545.503.75 0 1.392-.261 1.932-.785l1.688.793c-.421.597-.926 1.04-1.513 1.324-.587.287-1.284.43-2.091.43-1.254 0-2.275-.394-3.062-1.186-.79-.79-1.182-1.78-1.182-2.969 0-1.218.392-2.23 1.178-3.035.786-.807 1.771-1.208 2.954-1.208 1.258 0 2.28.401 3.069 1.208.789.805 1.181 1.868 1.181 3.19l-.006.38zm38.318 2.773v.847h-.149v-.847h-.27v-.136h.688v.136h-.269zm1.157.847v-.658l-.227.48h-.109l-.233-.48v.658h-.148v-.983h.148l.288.613.281-.613h.15v.983h-.15" fill="#fff"/></svg>