<svg width="72" height="72" viewBox="0 0 72 72" fill="none" xmlns="http://www.w3.org/2000/svg">
<rect width="72" height="72" fill="black"/>
<path d="M17.0182 39.1311C17.8909 39.1311 18.5569 38.7407 19.2 38.1665C19.4297 37.9713 19.5445 37.8106 19.866 37.8106C20.1072 37.8106 20.3139 38.0058 20.3368 38.2469C20.3368 38.8326 19.4641 39.5101 19.0278 39.7512C18.1895 40.2565 17.3512 40.4287 16.3522 40.4287C14.1474 40.4173 12 38.9933 12 36.6163C12 33.8948 14.3426 32.2871 16.8574 32.2871C18.2928 32.2871 20.1646 32.9531 20.1646 34.6412C20.1646 35.8354 19.0163 36.9838 14.9397 37.3972C15.1579 38.4192 15.9732 39.1311 17.0182 39.1311ZM17.6498 34.4689C17.6498 33.8603 17.3282 33.424 16.6852 33.424C15.3301 33.424 14.7215 35.2039 14.8019 36.3292C15.8584 36.2373 17.6498 35.801 17.6498 34.4689Z" fill="white"/>
<path d="M21.4737 35.0431C21.4737 34.4804 21.5426 34.1818 20.9914 33.9177C20.8306 33.8488 20.6469 33.7455 20.6469 33.4814C20.6469 32.8957 22.6335 32.2871 23.1388 32.2871C23.69 32.2871 23.8048 33.0335 23.8622 33.4469C24.5168 32.7005 25.4699 32.2756 26.4574 32.2871C27.422 32.2871 28.2833 32.7235 28.7656 33.5962C29.3971 32.666 30.4306 32.2871 31.5216 32.2871C32.2335 32.2871 33.0259 32.5282 33.5541 33.0335C34.1627 33.6191 34.266 34.4345 34.266 35.2498V38.0058C34.266 38.7981 34.266 38.9933 34.5072 39.1656C34.7598 39.2804 34.9091 39.3952 34.9091 39.6708C34.9091 40.1761 34.5072 40.1876 34.1512 40.1876H31.7512C31.3952 40.1876 30.9933 40.1761 30.9933 39.6708C30.9933 39.3952 31.1426 39.2804 31.3952 39.1656C31.6364 38.9933 31.6364 38.7981 31.6364 38.0058V35.6287C31.6364 34.8479 31.6479 33.734 30.5914 33.734C30.155 33.7225 29.7416 33.9292 29.4775 34.2852C29.1905 34.6756 29.1905 35.2383 29.1905 35.7091V38.0058C29.1905 38.7981 29.1905 38.9933 29.4316 39.1656C29.6842 39.2804 29.8335 39.3952 29.8335 39.6708C29.8335 40.1761 29.4316 40.1876 29.0756 40.1876H26.6756C26.3196 40.1876 25.9177 40.1761 25.9177 39.6708C25.9177 39.3952 26.067 39.2804 26.3196 39.1656C26.5608 38.9933 26.5608 38.7981 26.5608 38.0058V35.6287C26.5608 34.8479 26.5723 33.734 25.5158 33.734C25.0794 33.7225 24.666 33.9292 24.4019 34.2852C24.1149 34.6756 24.1149 35.2383 24.1149 35.7091V38.0058C24.1149 38.7981 24.1149 38.9933 24.356 39.1656C24.6086 39.2804 24.7579 39.3952 24.7579 39.6708C24.7579 40.1761 24.356 40.1876 24 40.1876H21.5885C21.2326 40.1876 20.8306 40.1761 20.8306 39.6708C20.8306 39.3952 20.9799 39.2804 21.2326 39.1656C21.4737 38.9818 21.4737 38.7866 21.4737 37.9943V35.0431Z" fill="white"/>
<path d="M36.2412 35.0431C36.2412 34.4804 36.3101 34.1818 35.7589 33.9177C35.5981 33.8488 35.4258 33.7455 35.4258 33.4814C35.4258 32.8957 37.4124 32.2871 37.9062 32.2871C38.4574 32.2871 38.5723 33.0335 38.6297 33.4469C39.2842 32.7005 40.2373 32.2756 41.2249 32.2871C42.1895 32.2871 43.0507 32.7235 43.533 33.5962C44.1646 32.666 45.1981 32.2871 46.289 32.2871C47.001 32.2871 47.7933 32.5282 48.3215 33.0335C48.9416 33.6191 49.0335 34.4345 49.0335 35.2498V38.0058C49.0335 38.7981 49.0335 38.9933 49.2746 39.1656C49.5273 39.2804 49.6766 39.3952 49.6766 39.6708C49.6766 40.1761 49.2746 40.1876 48.9187 40.1876H46.5187C46.1627 40.1876 45.7608 40.1761 45.7608 39.6708C45.7608 39.3952 45.9101 39.2804 46.1627 39.1656C46.4038 38.9933 46.4038 38.7981 46.4038 38.0058V35.6287C46.4038 34.8479 46.4153 33.734 45.3589 33.734C44.9225 33.7225 44.5091 33.9292 44.245 34.2852C43.9579 34.6756 43.9579 35.2383 43.9579 35.7091V38.0058C43.9579 38.7981 43.9579 38.9933 44.199 39.1656C44.4517 39.2804 44.601 39.3952 44.601 39.6708C44.601 40.1761 44.199 40.1876 43.8431 40.1876H41.4431C41.0871 40.1876 40.6852 40.1761 40.6852 39.6708C40.6852 39.3952 40.8345 39.2804 41.0871 39.1656C41.3282 38.9933 41.3282 38.7981 41.3282 38.0058V35.6287C41.3282 34.8479 41.3397 33.734 40.2833 33.734C39.8469 33.7225 39.4335 33.9292 39.1694 34.2852C38.8823 34.6756 38.8823 35.2383 38.8823 35.7091V38.0058C38.8823 38.7981 38.8823 38.9933 39.1234 39.1656C39.3761 39.2804 39.5254 39.3952 39.5254 39.6708C39.5254 40.1761 39.1235 40.1876 38.7675 40.1876H36.356C36 40.1876 35.5981 40.1761 35.5981 39.6708C35.5981 39.3952 35.7474 39.2804 36 39.1656C36.2412 38.9933 36.2412 38.7981 36.2412 38.0058V35.0431Z" fill="white"/>
<path d="M57.8756 37.9713C57.8756 38.7292 57.8871 38.9588 58.1856 39.0966C58.5416 39.2804 58.7139 39.3837 58.7139 39.6593C58.7139 40.1761 58.2316 40.1761 57.8411 40.1761H56.1646C55.3608 40.1761 55.3608 39.9005 55.3608 39.177C54.8096 40.0842 53.845 40.4172 52.8574 40.4172C51.3416 40.4172 49.9521 39.5789 49.9521 37.9139C49.9521 35.6172 52.8574 35.0545 54.6373 35.0545H55.177C55.177 34.0899 54.7177 33.355 53.6842 33.355C52.6966 33.355 52.5588 34.3885 51.5368 34.3885C51.066 34.3885 50.5378 34.1818 50.5378 33.6076C50.5378 32.4823 53.0871 32.2641 53.8794 32.2641C56.6928 32.2641 57.8871 33.5043 57.8871 35.399L57.8756 37.9713ZM54.9703 36.0765C53.822 36.0765 52.6622 36.6392 52.6622 37.9368C52.6622 38.5454 53.0182 39.0966 53.6842 39.0966C54.2124 39.0966 54.6373 38.7521 54.9244 38.3158C55.2689 37.7646 55.2689 37.7531 55.2689 36.0765H54.9703Z" fill="white"/>
<path d="M59.288 33.3321C58.9321 33.3321 58.6335 33.045 58.622 32.689C58.622 32.6775 58.622 32.6775 58.622 32.666C58.622 32.2986 58.9206 32 59.288 32C59.6555 32 59.9541 32.2986 59.9541 32.666C59.9655 33.0335 59.6785 33.3321 59.311 33.3321C59.2995 33.3321 59.288 33.3321 59.288 33.3321ZM59.288 32.1033C59.001 32.0919 58.7598 32.3215 58.7483 32.6086C58.7483 32.6201 58.7483 32.6431 58.7483 32.6545C58.7368 32.9531 58.9665 33.2057 59.2651 33.2172C59.5636 33.2287 59.8163 32.999 59.8277 32.7005C59.8277 32.689 59.8277 32.666 59.8277 32.6545C59.8507 32.3675 59.6325 32.1148 59.3455 32.0919C59.3225 32.1033 59.2995 32.1033 59.288 32.1033ZM59.4258 32.999L59.311 32.7464H59.1732V32.999H59.0469V32.2986H59.2995C59.4258 32.2871 59.5407 32.3789 59.5522 32.5053V32.5167C59.5522 32.6086 59.5062 32.689 59.4258 32.7234L59.5522 32.999H59.4258ZM59.311 32.4134H59.1732V32.6316H59.2995C59.3684 32.6316 59.4144 32.5971 59.4144 32.5167C59.4258 32.4478 59.3799 32.4019 59.311 32.4134C59.311 32.4134 59.3225 32.4134 59.311 32.4134Z" fill="white"/>
</svg>
