<svg width="72" height="72" viewBox="0 0 72 72" fill="none" xmlns="http://www.w3.org/2000/svg">
<rect width="72" height="72" fill="#FF7A59"/>
<path d="M48.2309 27.8617V22.1692C48.9843 21.8173 49.6223 21.2585 50.0704 20.558C50.5186 19.8575 50.7585 19.0441 50.7622 18.2125V18.0795C50.7591 16.9173 50.296 15.8037 49.4743 14.9819C48.6525 14.1602 47.5389 13.6971 46.3767 13.694H46.2437C45.0815 13.6971 43.9679 14.1602 43.1461 14.9819C42.3244 15.8037 41.8613 16.9173 41.8582 18.0795V18.2125C41.8619 19.0441 42.1018 19.8575 42.5499 20.558C42.9981 21.2585 43.6361 21.8173 44.3895 22.1692V27.8735C42.2233 28.2048 40.183 29.1025 38.4752 30.4758L22.8201 18.2835C23.1181 17.1678 23.0203 15.9833 22.5433 14.9316C22.0663 13.8799 21.2396 13.026 20.2039 12.5152C19.1681 12.0044 17.9874 11.8682 16.8627 12.13C15.7379 12.3917 14.7386 13.0351 14.0348 13.9507C13.331 14.8662 12.9662 15.9974 13.0025 17.1516C13.0388 18.3059 13.4739 19.4119 14.2339 20.2814C14.9938 21.151 16.0316 21.7303 17.1706 21.9208C18.3096 22.1113 19.4794 21.9013 20.481 21.3264L35.8729 33.3088C34.4866 35.4004 33.7633 37.8615 33.7976 40.3705C33.8319 42.8796 34.6221 45.3201 36.0652 47.373L31.381 52.0571C31.005 51.9373 30.6134 51.8736 30.2189 51.8678C29.4147 51.8678 28.6285 52.1063 27.9599 52.5531C27.2912 52.9999 26.7701 53.6349 26.4623 54.3779C26.1546 55.1209 26.074 55.9384 26.2309 56.7272C26.3878 57.5159 26.7751 58.2404 27.3437 58.8091C27.9124 59.3777 28.6369 59.765 29.4256 59.9219C30.2144 60.0788 31.0319 59.9982 31.7749 59.6905C32.5179 59.3827 33.1529 58.8616 33.5997 58.1929C34.0465 57.5242 34.285 56.7381 34.285 55.9339C34.2794 55.5393 34.2156 55.1477 34.0957 54.7718L38.7295 50.1379C40.2422 51.2933 41.9988 52.0878 43.8653 52.4608C45.7318 52.8338 47.6589 52.7753 49.4994 52.29C51.3399 51.8046 53.0451 50.9052 54.485 49.6603C55.9248 48.4154 57.0612 46.8579 57.8074 45.1069C58.5536 43.3558 58.8898 41.4574 58.7904 39.5566C58.691 37.6558 58.1586 35.8028 57.2339 34.1391C56.3092 32.4754 55.0165 31.045 53.4547 29.9571C51.8928 28.8692 50.1031 28.1525 48.222 27.8617H48.2309ZM46.3028 46.6159C45.0353 46.613 43.7971 46.2345 42.7447 45.5281C41.6923 44.8217 40.8729 43.8193 40.39 42.6474C39.9071 41.4755 39.7824 40.1867 40.0317 38.944C40.281 37.7012 40.893 36.5603 41.7905 35.6653C42.688 34.7703 43.8307 34.1614 45.0741 33.9155C46.3175 33.6697 47.6059 33.7979 48.7765 34.284C49.947 34.7702 50.9472 35.5924 51.6507 36.6467C52.3541 37.7011 52.7293 38.9403 52.7287 40.2078C52.7287 41.9081 52.0532 43.5388 50.8509 44.7411C49.6486 45.9434 48.0179 46.6189 46.3176 46.6189" fill="white"/>
</svg>
