<svg width="72" height="72" viewBox="0 0 72 72" fill="none" xmlns="http://www.w3.org/2000/svg">
<rect width="72" height="72" fill="white"/>
<path opacity="0.15" fill-rule="evenodd" clip-rule="evenodd" d="M40.143 22.5739L22.7686 40.5574L13.9423 32.0301L31.3167 14.0466L40.143 22.5739Z" fill="#67266D"/>
<path opacity="0.15" fill-rule="evenodd" clip-rule="evenodd" d="M31.4395 49.3403L49.1211 31.6587L57.7993 40.3368L40.1177 58.0184L31.4395 49.3403Z" fill="#58C1A8"/>
<path opacity="0.15" fill-rule="evenodd" clip-rule="evenodd" d="M22.7631 31.9797L40.4447 49.6613L31.7666 58.3394L14.085 40.6578L22.7631 31.9797Z" fill="#EE3853"/>
<path opacity="0.15" fill-rule="evenodd" clip-rule="evenodd" d="M49.0799 40.3808L31.3983 22.6992L40.0764 14.0211L57.758 31.7027L49.0799 40.3808Z" fill="#2DC3F3"/>
<path d="M41.9503 53.7266C41.9503 57.1507 39.1747 59.926 35.7509 59.926C32.3271 59.926 29.5513 57.1507 29.5513 53.7266C29.5513 50.3025 32.3271 47.5272 35.7509 47.5272C39.1747 47.5272 41.9503 50.3025 41.9503 53.7266Z" fill="#58C1A8"/>
<path d="M29.5294 18.3516C29.5294 14.9278 32.3052 12.1522 35.7288 12.1522C39.1529 12.1522 41.9287 14.9278 41.9287 18.3516C41.9287 21.7757 39.1529 24.5515 35.7288 24.5515C32.3052 24.5515 29.5294 21.7757 29.5294 18.3516Z" fill="#67266D"/>
<path d="M13.8657 40.7134C11.4445 38.2922 11.4448 34.367 13.8658 31.946C16.287 29.5248 20.2121 29.5246 22.6333 31.9458C25.0543 34.3668 25.0543 38.292 22.6331 40.7132C20.2121 43.1342 16.2867 43.1344 13.8657 40.7134Z" fill="#EE3853"/>
<path d="M59.7198 35.9374C59.7198 39.3615 56.944 42.1368 53.5204 42.1368C50.0963 42.1368 47.3208 39.3615 47.3208 35.9374C47.3208 32.5133 50.0963 29.738 53.5204 29.738C56.944 29.738 59.7198 32.5133 59.7198 35.9374Z" fill="#2DC3F3"/>
</svg>
