<svg width="72" height="72" viewBox="0 0 72 72" fill="none" xmlns="http://www.w3.org/2000/svg">
<rect width="72" height="72" fill="white"/>
<path d="M12.9717 34.6635L34.4917 20.4073C35.3403 19.8642 36.664 19.8642 37.5126 20.4073L59.0326 34.6635C60.3225 35.5121 60.3225 36.9038 59.0326 37.7523L56.1474 39.6531C51.9046 32.9662 44.4371 28.5536 35.9852 28.5536C27.4993 28.5536 20.0658 33.0002 15.8229 39.653L12.9377 37.7522C11.6818 36.9037 11.6818 35.4781 12.9717 34.6635ZM35.9852 34.4937C29.5699 34.4937 23.9692 37.888 20.7786 42.9116L25.7344 46.2041C27.8388 42.7419 31.6065 40.4338 35.9513 40.4338C40.2621 40.4338 44.0637 42.7419 46.1682 46.2041L51.124 42.9116C48.035 37.888 42.4005 34.4937 35.9852 34.4937ZM35.9852 46.4078C33.7449 46.4078 31.7762 47.6637 30.724 49.4966L34.0504 51.6689C34.5935 52.1102 35.2384 52.3817 35.9852 52.3817C36.732 52.3817 37.4108 52.1102 37.92 51.6689L41.2464 49.4966C40.262 47.6977 38.2593 46.4078 35.9852 46.4078Z" fill="url(#paint0_linear)"/>
<defs>
<linearGradient id="paint0_linear" x1="36" y1="52.3818" x2="36" y2="20" gradientUnits="userSpaceOnUse">
<stop stop-color="#F0C21A"/>
<stop offset="0.3314" stop-color="#93C94B"/>
<stop offset="0.4859" stop-color="#70C05A"/>
<stop offset="0.7506" stop-color="#12B259"/>
<stop offset="0.903" stop-color="#22AD69"/>
<stop offset="1" stop-color="#22AD69"/>
</linearGradient>
</defs>
</svg>
