<svg width="72" height="72" viewBox="0 0 72 72" fill="none" xmlns="http://www.w3.org/2000/svg">
<rect width="72" height="72" fill="white"/>
<path d="M30.8308 44.3692L22.4615 55.8154C26.1539 58.2769 30.4615 59.7538 35.2615 60V45.8462C33.6615 45.7231 32.1846 45.2308 30.8308 44.3692Z" fill="#48555C"/>
<path d="M35.2615 26.1538V12C30.4615 12.1231 26.1539 13.7231 22.4615 16.1846L30.8308 27.6308C32.0615 26.7692 33.6615 26.2769 35.2615 26.1538Z" fill="#B2AD4B"/>
<path d="M49.4154 16.1846C45.723 13.7231 41.4154 12.2462 36.6154 12V26.1538C38.2154 26.2769 39.6923 26.7692 41.0461 27.6308L49.4154 16.1846Z" fill="#E3B23A"/>
<path d="M26.8923 39.8154L13.3538 44.1231C14.9538 48.4308 17.6615 52.2462 21.2307 54.9539L29.6 43.5077C28.4923 42.5231 27.5077 41.1692 26.8923 39.8154Z" fill="#4E5C5A"/>
<path d="M29.6 28.4923L21.2307 17.0461C17.6615 19.8769 14.9538 23.5692 13.3538 27.8769L26.8923 32.3077C27.5077 30.8308 28.3692 29.4769 29.6 28.4923Z" fill="#9E9540"/>
<path d="M26.1538 36C26.1538 35.2615 26.2769 34.4 26.4 33.6615L12.9846 29.3539C12.3692 31.4462 12 33.6615 12 36C12 38.3385 12.3692 40.5538 12.9846 42.7692L26.4 38.3385C26.2769 37.6 26.1538 36.8615 26.1538 36Z" fill="#6A7B53"/>
<path d="M42.4 43.5077L50.7693 54.9539C54.3385 52.1231 57.0462 48.4308 58.6462 44.1231L45.1077 39.6923C44.4923 41.1692 43.5077 42.5231 42.4 43.5077Z" fill="#D45741"/>
<path d="M36.7385 45.8462V60C41.4154 59.8769 45.8462 58.4 49.5385 55.8154L41.1692 44.3692C39.9385 45.2308 38.3385 45.7231 36.7385 45.8462Z" fill="#983428"/>
<path d="M59.0154 29.2308L45.6 33.6615C45.8461 34.4 45.8461 35.2615 45.8461 36C45.8461 36.7385 45.7231 37.6 45.6 38.3385L59.0154 42.7692C59.6307 40.6769 60 38.4615 60 36.1231C60 33.6615 59.6307 31.4462 59.0154 29.2308Z" fill="#E7703D"/>
<path d="M45.1077 32.1846L58.5231 27.7538C56.9231 23.4461 54.2154 19.6308 50.6461 16.9231L42.2769 28.3692C43.5077 29.4769 44.4923 30.8308 45.1077 32.1846Z" fill="#F2A738"/>
</svg>
