<svg width="72" height="72" viewBox="0 0 72 72" fill="none" xmlns="http://www.w3.org/2000/svg">
<rect width="72" height="72" fill="#FFE01B"/>
<path d="M47.02 34.6817C47.3704 34.6401 47.7059 34.6379 48.0147 34.6817C48.1934 34.2721 48.2238 33.5665 48.0632 32.7979C47.8248 31.6555 47.5016 30.9643 46.8339 31.0721C46.1662 31.1798 46.1416 32.0075 46.3806 33.1494C46.515 33.7921 46.7539 34.3414 47.02 34.6817Z" fill="#241C15"/>
<path d="M41.2895 35.5856L41.3651 35.6189C41.798 35.8095 42.0669 35.9279 42.1753 35.8128C42.2495 35.7371 42.2271 35.5926 42.1129 35.4064C41.8772 35.0219 41.3924 34.6315 40.8777 34.4123C39.826 33.9595 38.5711 34.1099 37.6031 34.8054C37.2836 35.0395 36.9807 35.3638 37.0239 35.5606C37.0378 35.624 37.0858 35.672 37.1978 35.688C37.3013 35.6998 37.5063 35.6351 37.7813 35.5483C38.2063 35.4142 38.7986 35.2273 39.4426 35.1878C40.1908 35.1419 40.8116 35.376 41.2895 35.5856Z" fill="#241C15"/>
<path d="M39.1433 36.6278C39.3635 36.4374 39.7065 36.232 40.3289 36.1339C41.1854 36.0321 41.8142 36.4315 41.9598 36.6678C42.0222 36.7691 41.9977 36.8358 41.9774 36.8667C41.9106 36.9716 41.7671 36.9555 41.4679 36.9217L41.4483 36.9195C40.8825 36.8555 40.3113 36.8176 39.4457 37.1275C39.4457 37.1275 39.1305 37.2539 38.9902 37.2539C38.9497 37.2539 38.9161 37.24 38.8878 37.215C38.867 37.1974 38.8409 37.1622 38.8403 37.1014C38.8393 36.9739 38.9555 36.792 39.1433 36.6278Z" fill="#241C15"/>
<path d="M47.8002 35.7734C47.4573 35.7675 47.1725 36.1441 47.1645 36.615C47.1565 37.0859 47.4285 37.4715 47.7714 37.4774C48.1143 37.4832 48.3991 37.1067 48.4071 36.6358C48.4151 36.1654 48.1431 35.7793 47.8002 35.7734Z" fill="#241C15"/>
<path d="M45.0852 38.1462C45.5076 38.3536 45.9727 38.272 46.1241 37.9643C46.2756 37.6566 46.0559 37.2384 45.6335 37.031C45.2111 36.8235 44.746 36.9051 44.5945 37.2128C44.4431 37.5211 44.6628 37.9387 45.0852 38.1462Z" fill="#241C15"/>
<path d="M24.3918 44.2155C24.5278 44.1835 24.6681 44.1509 24.7534 44.2581L24.7518 44.2592C24.7833 44.2939 24.8313 44.3749 24.7742 44.5083C24.6772 44.7333 24.2932 45.0421 23.7438 45.0213C23.179 44.9776 22.5502 44.5669 22.4649 43.5445C22.4228 43.0395 22.6137 42.4246 22.731 42.103C22.9582 41.4816 22.7534 40.8299 22.2217 40.4822C21.9092 40.2774 21.5358 40.2075 21.171 40.2859C20.8126 40.3632 20.5076 40.5739 20.3113 40.88C20.1489 41.1336 20.0497 41.4499 19.9963 41.6202L19.962 41.7254C19.8425 42.047 19.6516 42.1408 19.5225 42.1238C19.4617 42.1152 19.3774 42.0742 19.3236 41.927C19.1769 41.5243 19.2959 40.3846 20.0548 39.5472C20.5358 39.0166 21.29 38.7451 22.0228 38.8379C22.786 38.935 23.4206 39.3963 23.81 40.1376C24.3268 41.1222 23.8665 42.1552 23.5913 42.7728L23.5108 42.9563C23.3385 43.3659 23.3294 43.7237 23.4857 43.9637C23.6057 44.1483 23.8196 44.256 24.0718 44.2608C24.1897 44.2624 24.2969 44.2379 24.3918 44.2155Z" fill="#241C15"/>
<path fill-rule="evenodd" clip-rule="evenodd" d="M56.4501 42.3599C56.4535 42.3721 56.4561 42.3815 56.4579 42.3878V42.3888C57.1459 42.3888 58.2264 43.1808 58.2264 45.0917C58.2264 46.9936 57.4376 49.1477 57.2515 49.6256C54.4088 56.4373 47.6249 60.2293 39.5433 59.9893C32.0095 59.7653 25.5839 55.7898 22.7717 49.3093C21.0714 49.3109 19.3189 48.5632 17.9861 47.3824C16.5818 46.1387 15.7157 44.5291 15.5472 42.8496C15.4154 41.5424 15.5765 40.3264 15.9861 39.2651L14.4069 37.927C7.18081 31.8251 29.7834 6.70154 37.0127 13.0071C37.0489 13.0391 39.4718 15.4162 39.4777 15.422L40.8212 14.8519C47.1619 12.2263 52.307 13.494 52.3134 17.6833C52.3171 19.8615 50.9288 22.4012 48.7049 24.7062C49.5107 25.454 50.156 26.623 50.5267 27.959C50.8376 28.9457 50.8926 29.9478 50.9208 30.5899C50.9474 31.2033 50.9759 32.3799 50.9925 33.0611C50.9999 33.366 51.0049 33.5716 51.0062 33.583L51.899 33.831C53.6008 34.3089 54.812 34.9457 55.404 35.567C55.996 36.1889 56.2899 36.7899 56.3965 37.4955C56.4968 38.0646 56.4835 39.0699 55.7325 40.1936C55.7325 40.1936 55.9262 40.6155 56.1133 41.216C56.2846 41.765 56.4135 42.2283 56.4501 42.3599ZM35.9492 20.5985C33.9732 21.6092 31.7679 23.4092 29.9759 25.4796C29.9124 25.5526 30.0068 25.6566 30.0852 25.5996C31.6324 24.4742 33.754 23.4273 36.5332 22.7495C39.6468 21.99 42.6436 22.3084 44.4745 22.7281C44.5662 22.7489 44.6243 22.5905 44.5427 22.5447C43.3326 21.8657 41.4761 21.4049 40.1593 21.3953C40.0942 21.3948 40.0574 21.3201 40.0964 21.2679C40.3241 20.9617 40.6361 20.6588 40.9214 20.4401C40.9854 20.3905 40.9465 20.2876 40.866 20.2924C38.9902 20.4076 36.8521 21.3057 35.6228 22.1436C35.562 22.1847 35.4836 22.1308 35.4985 22.0588C35.594 21.5975 35.8964 20.9889 36.0532 20.7047C36.09 20.6375 36.0175 20.5633 35.9492 20.5985ZM46.3721 46.2683C46.3779 46.3285 46.3417 46.3888 46.2883 46.4112C46.2883 46.4112 43.3518 47.7755 38.6873 46.3328C38.8169 47.4267 39.8836 47.9173 40.3929 48.1157C41.034 48.3648 41.7364 48.4805 41.7364 48.4805C47.5166 49.4752 52.9203 46.1701 54.1368 45.3376C54.228 45.2752 54.2888 45.336 54.2152 45.4464L54.0963 45.616C52.6072 47.5365 48.6041 49.7605 43.3961 49.76C41.1246 49.7594 38.8542 48.9594 38.0206 47.7296C36.7273 45.8213 37.9566 43.0368 40.1113 43.3269L41.0553 43.4336C43.7491 43.7339 47.6483 43.3563 50.8622 41.8646C53.8024 40.4998 54.9128 38.9979 54.7464 37.7819C54.7011 37.4544 54.5544 37.111 54.2392 36.7878C53.7107 36.2705 52.8728 35.8678 51.4595 35.471C51.3647 35.4444 51.276 35.4197 51.1921 35.3963C50.8627 35.3046 50.6062 35.2332 50.3342 35.1435C49.7272 34.9435 49.427 34.783 49.3592 33.6417C49.3294 33.1425 49.2425 31.4038 49.211 30.6854C49.1555 29.4268 49.0041 27.7057 47.9363 26.9953C47.6585 26.8102 47.3491 26.7212 47.0238 26.7036C46.7608 26.6912 46.6063 26.728 46.5244 26.7475C46.5071 26.7516 46.4931 26.7549 46.4819 26.7569C45.9051 26.8543 45.5513 27.1503 45.1345 27.499C45.1108 27.5189 45.0869 27.5389 45.0627 27.559C43.7305 28.6689 42.6062 28.8508 41.3556 28.7964C40.9659 28.7799 40.5642 28.7405 40.1403 28.6988C39.7513 28.6606 39.3435 28.6205 38.9092 28.5948L38.3785 28.5644C36.2841 28.4572 34.0377 30.2662 33.6644 32.8347C33.2475 35.7011 34.829 37.4569 35.8579 38.5993C36.1125 38.8818 36.3332 39.1269 36.4815 39.3419C36.5769 39.472 36.6873 39.655 36.6873 39.8283C36.6873 40.0358 36.5529 40.2006 36.4212 40.3403V40.3414C34.2847 42.5387 33.6015 46.0293 34.4063 48.9387C34.5065 49.3018 34.634 49.6496 34.7849 49.9813C36.674 54.3962 42.5353 56.4522 48.2611 54.5818C49.0286 54.3317 49.7545 54.0218 50.4366 53.6634C51.7208 53.0341 52.843 52.169 53.7678 51.1738C55.2867 49.5861 56.1902 47.8603 56.5411 45.7344C56.7133 44.5963 56.4611 44.1563 56.1171 43.9445C55.7528 43.7205 55.3171 43.7984 55.3171 43.7984C55.3171 43.7984 55.1182 42.4374 54.5555 41.2011C52.8867 42.5184 50.7379 43.4443 49.1022 43.9136C47.2142 44.4555 44.6595 44.872 41.8094 44.7019C41.4989 44.6768 41.2091 44.6389 40.9408 44.6038C39.8425 44.4602 39.105 44.3637 38.7886 45.3915C42.4009 46.7136 46.2243 46.1477 46.2243 46.1477C46.2985 46.1403 46.3646 46.1941 46.3721 46.2683ZM16.7413 37.831C17.6154 36.5606 19.0453 35.6411 20.6677 35.3259C22.7333 29.783 26.1802 24.6753 30.7444 21.1612C34.1316 18.3361 37.7844 16.3095 37.7844 16.3095C37.7844 16.3095 35.8169 14.0284 35.2228 13.8604C31.5689 12.8727 23.6757 18.3164 18.6357 25.5084C16.5962 28.4188 13.6773 33.5718 15.073 36.2225C15.2453 36.5515 16.2186 37.3952 16.7413 37.831ZM22.6447 47.5408C22.8975 47.5472 23.1482 47.5307 23.3935 47.4885C26.0346 47.0384 26.7258 44.1701 26.2906 41.3531C25.7994 38.1723 23.6479 37.0513 22.1877 36.9713C21.7818 36.9499 21.4053 36.9862 21.0938 37.0491C18.4879 37.575 17.016 39.7915 17.3056 42.672C17.5674 45.2779 20.2037 47.4752 22.6447 47.5408Z" fill="#241C15"/>
</svg>
