<svg width="72" height="72" viewBox="0 0 72 72" fill="none" xmlns="http://www.w3.org/2000/svg">
<rect width="72" height="72" fill="white"/>
<path d="M17.2218 51.8614C17.1452 51.9374 17.0646 52.0092 16.9805 52.0769V50.9362H15.9633V59.8152H16.9834V56.5594C18.4516 58.2491 20.144 58.0794 21.2388 57.3955C22.5806 56.5652 23.1554 54.7751 22.6756 53.1228C21.9315 50.6891 18.8826 49.8529 17.2218 51.8614ZM19.0868 56.8985C17.7449 56.8985 16.9231 55.7491 16.9116 54.3125C16.9 52.8758 18.015 51.6889 19.3511 51.6774C20.6871 51.6661 21.7444 52.7952 21.7444 54.3066C21.732 55.7476 20.5536 56.9054 19.1128 56.893H19.1126H19.0838L19.0868 56.8985Z" fill="#7D888E"/>
<path d="M53.5014 48.8674V50.8788H55.6422V51.7983H53.556C53.5416 52.0195 53.5187 52.1804 53.5187 52.373C53.5187 53.4304 53.5589 54.4906 53.5187 55.5337C53.4554 56.778 54.0934 57.0423 55.2426 56.8124C55.34 56.7858 55.436 56.754 55.53 56.7176C55.7685 57.4963 55.619 57.7319 54.8431 57.8295C53.2255 58.0219 52.4496 57.3381 52.4469 55.7033V51.8414L51.5275 51.7983V50.9362L52.441 50.8788V48.8674H53.5014V48.8674Z" fill="#7D888E"/>
<path d="M32.402 57.7059H31.3733V50.9362H32.3819V52.4994C33.0915 51.4276 33.8788 50.7438 35.1375 50.7955V51.85C33.0973 52.2323 32.3992 53.0971 32.3992 55.2119C32.402 56.0192 32.402 56.8411 32.402 57.7059Z" fill="#7D888E"/>
<path d="M41.4503 48.1175V52.054C39.6574 50.4478 38.0366 50.3299 36.6632 51.6028C35.2898 52.8758 35.169 55.166 36.3301 56.6572C36.7946 57.2588 37.4646 57.6679 38.212 57.8067C39.5135 58.0682 40.5337 57.5595 41.4446 56.4303V57.6859H42.4302V48.1145H41.4503V48.1175V48.1175ZM38.982 56.9417C37.6402 56.9101 36.6002 55.7233 36.6289 54.2492C36.6576 52.7752 37.6604 51.6632 39.0224 51.6805C40.3845 51.6976 41.479 52.8671 41.459 54.3613C41.4475 55.7836 40.3067 56.9704 38.9849 56.9417H38.982Z" fill="#7D888E"/>
<path d="M29.5947 52.9476C29.5344 51.9103 28.8965 51.2235 27.9023 50.9564C26.679 50.6458 25.3842 50.7962 24.2647 51.3787L24.5519 52.2205C25.7559 51.7724 26.3937 51.6833 27.1811 51.781C28.0661 51.8931 28.8505 52.7378 28.5488 53.7406L28.2386 53.6746C27.0891 53.4592 25.9541 53.3326 24.8593 53.8384C23.8262 54.2763 23.344 55.4687 23.7819 56.5017C23.936 56.8651 24.1925 57.1757 24.5202 57.3955C25.0922 57.777 25.7785 57.9486 26.4627 57.8812C27.2877 57.8181 28.0585 57.4456 28.6206 56.8382L28.6695 57.7003H29.6263C29.6263 57.548 29.6636 57.4129 29.6607 57.3036C29.6522 55.8469 29.6809 54.3843 29.5947 52.9476ZM27.6322 56.7519C26.7904 57.1571 25.9312 57.2173 25.141 56.6314C24.6196 56.2058 24.542 55.4384 24.9673 54.917C25.045 54.8221 25.1364 54.7394 25.2386 54.6716C26.1997 54.2276 27.2923 54.159 28.3016 54.479C28.473 54.5576 28.5973 54.7119 28.6378 54.8958C28.7842 55.6716 28.3653 56.4436 27.635 56.7434L27.6322 56.7519Z" fill="#7D888E"/>
<path d="M47.4184 50.7293C45.4351 50.6963 43.8003 52.2775 43.7674 54.2608C43.7343 56.2442 45.3154 57.8789 47.2989 57.912C49.2807 57.9449 50.9147 56.3661 50.9498 54.3843V54.3613C50.9867 52.397 49.4242 50.7747 47.4598 50.738C47.4584 50.738 47.4571 50.7379 47.4558 50.7379L47.4184 50.7293ZM47.4184 56.9616C46.0191 56.9616 44.9098 55.7808 44.9157 54.2808C44.9214 52.7808 45.9874 51.6632 47.407 51.6745C48.8264 51.6862 49.8981 52.8471 49.8981 54.3153C49.8981 55.7836 48.8091 56.9561 47.4155 56.9616H47.4184Z" fill="#7D888E"/>
<path d="M31.9498 15.7294C35.1562 12.3729 40.4764 12.2513 43.8329 15.4576C44.4601 16.0568 44.9906 16.7494 45.406 17.511C46.7193 16.9239 48.1425 16.6232 49.5811 16.6289C55.3353 16.6289 60 21.2936 60 27.0479C60 32.8021 55.3354 37.4668 49.5811 37.4668C48.8986 37.4655 48.2179 37.3951 47.5497 37.257C46.2125 39.641 43.6942 41.1194 40.9608 41.1246C39.8184 41.1296 38.6906 40.8671 37.668 40.3574C35.8003 44.7367 30.7361 46.7725 26.357 44.9049C24.1801 43.9763 22.4809 42.1939 21.6574 39.9755C21.1162 40.0913 20.5644 40.1492 20.0109 40.1478C15.5425 40.09 11.9668 36.4212 12.0246 31.9526C12.061 29.1187 13.5777 26.5102 16.0226 25.0767C15.5111 23.9074 15.2506 22.6436 15.2583 21.3672C15.2495 16.2348 19.4029 12.0673 24.535 12.0586C27.4401 12.0537 30.1802 13.4076 31.9413 15.718" fill="#139CD8"/>
<path d="M18.9736 29.4613C18.9532 29.4998 18.9615 29.547 18.9938 29.5762C19.0885 29.6336 19.1662 29.6911 19.261 29.7486C19.7032 29.9806 20.1986 30.0926 20.6976 30.0734C21.6746 30.0734 22.2866 29.5562 22.2866 28.7142V28.6941C22.2866 27.9097 21.597 27.6396 20.9449 27.4298L20.873 27.4011C20.393 27.2489 19.9737 27.1137 19.9737 26.7891V26.769C19.9737 26.5018 20.2236 26.2891 20.6056 26.2891C21.0406 26.2948 21.4677 26.4063 21.85 26.6138C21.8897 26.642 21.9447 26.6331 21.9734 26.5937V26.5737C21.9936 26.5162 22.166 26.0765 22.166 26.0363C22.1777 25.994 22.1631 25.9486 22.1285 25.9214C21.7 25.6673 21.2103 25.5352 20.712 25.5391H20.6172C19.7177 25.5391 19.0855 26.0764 19.0855 26.8609V26.881C19.0855 27.7057 19.7751 27.9729 20.4275 28.1454L20.5223 28.1826C21.0022 28.3349 21.4045 28.4499 21.4045 28.7774V28.7976C21.4045 29.1051 21.1371 29.3351 20.7149 29.3351C20.2668 29.3392 19.8274 29.2122 19.4505 28.97C19.3729 28.9326 19.3356 28.8924 19.2983 28.8751C19.2586 28.8468 19.2034 28.8559 19.1747 28.8952V28.9153L18.9736 29.4613Z" fill="white"/>
<path d="M33.3379 29.4613C33.3173 29.4998 33.3256 29.547 33.3579 29.5762C33.4529 29.6336 33.5303 29.6911 33.6253 29.7486C34.0675 29.9806 34.5629 30.0926 35.0617 30.0734C36.0387 30.0734 36.6509 29.5562 36.6509 28.7142V28.6941C36.6509 27.9097 35.9613 27.6396 35.3089 27.4298L35.2399 27.401C34.76 27.2489 34.3406 27.1137 34.3406 26.7891V26.769C34.3406 26.5018 34.5904 26.2891 34.9728 26.2891C35.4075 26.2948 35.8346 26.4063 36.2169 26.6138C36.2567 26.642 36.3116 26.633 36.3403 26.5937V26.5737C36.3605 26.5162 36.533 26.0765 36.533 26.0363C36.5446 25.9939 36.5301 25.9486 36.4956 25.9214C36.067 25.6674 35.5772 25.5353 35.079 25.5391H34.9842C34.0847 25.5391 33.4528 26.0764 33.4528 26.8609V26.881C33.4528 27.7057 34.1422 27.9729 34.7946 28.1454L34.8893 28.1826C35.3692 28.3349 35.7715 28.4499 35.7715 28.7774V28.7976C35.7715 29.1051 35.5044 29.3351 35.0819 29.3351C34.634 29.3392 34.1945 29.2121 33.8176 28.97C33.7401 28.9326 33.7026 28.8924 33.6654 28.8751C33.6256 28.8468 33.5703 28.8559 33.5416 28.8952V28.9153L33.3379 29.4613Z" fill="white"/>
<path d="M43.9952 26.9328C43.9206 26.6749 43.7967 26.4339 43.6303 26.2231C43.4541 26.022 43.239 25.8588 42.9982 25.7433C42.4334 25.5141 41.8014 25.5141 41.2368 25.7433C40.9956 25.8587 40.7805 26.022 40.6046 26.2231C40.431 26.4291 40.3063 26.6717 40.2396 26.9328C40.0872 27.51 40.0872 28.117 40.2396 28.6942C40.3141 28.9522 40.4381 29.1931 40.6046 29.4039C40.7805 29.605 40.9957 29.7683 41.2368 29.8838C41.8014 30.1131 42.4334 30.1131 42.9982 29.8838C43.2432 29.7753 43.4598 29.6109 43.6303 29.4039C43.804 29.1981 43.9287 28.9554 43.9952 28.6942C44.0733 28.4068 44.1121 28.1099 44.1101 27.8121C44.1135 27.5141 44.0749 27.2171 43.9952 26.9299V26.9328ZM43.1705 27.812C43.1902 28.2006 43.0973 28.5867 42.9034 28.9241C42.7268 29.191 42.417 29.338 42.0987 29.3064C41.7826 29.3263 41.4783 29.1818 41.2942 28.9241C40.9367 28.2269 40.9367 27.4001 41.2942 26.7029C41.4705 26.4361 41.7804 26.2889 42.0987 26.3206C42.4149 26.3005 42.7191 26.445 42.9034 26.7029C43.0998 27.0393 43.1926 27.426 43.1705 27.8149" fill="white"/>
<path d="M50.7189 29.1941C50.7091 29.1531 50.6683 29.1277 50.6271 29.1367C50.5034 29.1863 50.3754 29.2247 50.245 29.2516C50.0994 29.2743 49.9525 29.2868 49.8052 29.2889C49.4578 29.3089 49.1177 29.184 48.8657 28.9442C48.6075 28.6274 48.4838 28.222 48.5209 27.815C48.5063 27.434 48.614 27.0584 48.8283 26.7431C49.0473 26.4624 49.393 26.3111 49.7478 26.3407C50.0392 26.3361 50.3297 26.3748 50.6098 26.4558C50.6515 26.4635 50.6922 26.4387 50.7047 26.3982C50.7822 26.2057 50.8397 26.0535 50.9145 25.8438C50.9257 25.8034 50.9027 25.7613 50.8626 25.7489C50.6826 25.6862 50.4969 25.6408 50.3081 25.6139C50.1051 25.5899 49.9005 25.5775 49.6961 25.5765C49.3811 25.5709 49.0681 25.6297 48.7766 25.7489C48.5207 25.8573 48.2918 26.0212 48.1072 26.2288C47.9287 26.4374 47.7921 26.6783 47.7048 26.9384C47.6103 27.2228 47.5647 27.5211 47.5697 27.8206C47.5433 28.4111 47.7344 28.9909 48.1072 29.45C48.5347 29.8822 49.1299 30.1059 49.7364 30.0618C50.1358 30.0665 50.5328 29.9953 50.9059 29.852C50.9369 29.8315 50.9517 29.7935 50.9431 29.7573L50.7189 29.1941Z" fill="white"/>
<path d="M54.9142 26.7805C54.8417 26.5391 54.7172 26.3164 54.5491 26.1283C54.4036 25.9544 54.2197 25.8167 54.0119 25.726C53.7564 25.6224 53.483 25.5706 53.2073 25.5737C52.8921 25.5662 52.5789 25.6249 52.2878 25.746C52.0438 25.8566 51.8277 26.0206 51.6556 26.2259C51.4838 26.4421 51.3541 26.6887 51.2735 26.9529C51.195 27.2403 51.1564 27.5371 51.1586 27.8351C51.1521 28.1346 51.1978 28.4332 51.2935 28.7173C51.3656 28.9841 51.5038 29.2281 51.6959 29.427C51.894 29.623 52.1283 29.7791 52.3855 29.8868C52.7085 30.0112 53.0547 30.0631 53.4 30.039C53.8814 30.0677 54.3621 29.9759 54.7992 29.7718C54.8364 29.7516 54.8568 29.7345 54.8192 29.6367L54.6268 29.1195C54.6185 29.0858 54.5841 29.065 54.5502 29.0733C54.55 29.0733 54.5496 29.0735 54.5491 29.0737H54.5291C54.1668 29.2296 53.7737 29.3012 53.3797 29.2834C53.0316 29.2978 52.6903 29.182 52.4229 28.9588C52.1993 28.706 52.083 28.3763 52.0982 28.0391H54.8766C54.918 28.0408 54.9526 28.0086 54.9543 27.9674C54.9543 27.9674 54.9543 27.9674 54.9543 27.9673C55.0118 27.9472 55.1065 27.3927 54.9171 26.7806L54.9142 26.7805ZM52.1586 27.3552C52.1844 27.123 52.2631 26.8999 52.3884 26.703C52.5565 26.4352 52.8574 26.2808 53.1727 26.3006C53.4868 26.2881 53.7843 26.4407 53.9573 26.703C54.075 26.9008 54.1412 27.125 54.1497 27.3552H52.1586Z" fill="white"/>
<path d="M32.677 26.7805C32.6045 26.5391 32.4798 26.3165 32.312 26.1283C32.1664 25.9544 31.9826 25.8167 31.7747 25.726C31.5192 25.6224 31.2456 25.5706 30.9701 25.5737C30.6549 25.5663 30.3417 25.625 30.0506 25.7461C29.8066 25.8566 29.5905 26.0206 29.4184 26.2259C29.2467 26.4421 29.1169 26.6888 29.0363 26.9529C28.9578 27.2404 28.9193 27.5371 28.9214 27.8351C28.9149 28.1347 28.9605 28.4332 29.0563 28.7173C29.1282 28.9841 29.2664 29.2283 29.4586 29.427C29.6569 29.623 29.8911 29.7791 30.1482 29.8868C30.4712 30.0112 30.8175 30.0632 31.1625 30.039C31.6439 30.0677 32.1249 29.976 32.562 29.7718C32.5993 29.7516 32.6195 29.7345 32.582 29.6368L32.3665 29.1253C32.3582 29.0915 32.324 29.0708 32.2901 29.0792C32.2896 29.0792 32.2892 29.0792 32.289 29.0794H32.2688C31.9065 29.2353 31.5136 29.3071 31.1194 29.289C30.7712 29.3037 30.4301 29.1879 30.1626 28.9644C29.939 28.7117 29.8226 28.382 29.838 28.045H32.6165C32.6577 28.0465 32.6925 28.0144 32.6939 27.9732C32.6939 27.9732 32.6939 27.9732 32.6939 27.9732C32.7514 27.953 32.8463 27.3985 32.6566 26.7865L32.677 26.7805ZM29.8982 27.3609C29.9243 27.1289 30.0028 26.9058 30.1281 26.7087C30.2961 26.441 30.5972 26.2865 30.9127 26.3064C31.2265 26.2938 31.5241 26.4465 31.6971 26.7087C31.815 26.9065 31.8812 27.1309 31.8898 27.3609H29.8982Z" fill="white"/>
<path d="M25.0165 27.2202C24.9015 27.2202 24.7663 27.2 24.5768 27.2C24.3439 27.2033 24.1123 27.2352 23.8872 27.2948C23.6811 27.3486 23.4864 27.4391 23.3125 27.5621C23.1401 27.6772 23.0013 27.8357 22.9102 28.0218C22.8105 28.2176 22.7582 28.4343 22.7579 28.654C22.7483 28.8728 22.7949 29.0903 22.8929 29.2862C22.9756 29.461 23.1012 29.6123 23.258 29.7257C23.4308 29.8465 23.6263 29.9315 23.8325 29.9756C24.0705 30.0328 24.3149 30.0589 24.5596 30.0533C24.8422 30.0568 25.1243 30.0308 25.4015 29.9756C25.6686 29.9384 26.0134 29.8606 26.1113 29.8406C26.1769 29.8267 26.2412 29.8076 26.3037 29.7832C26.3447 29.7733 26.3701 29.7324 26.3612 29.6912V27.1455C26.3999 26.6921 26.2394 26.2441 25.9217 25.9185C25.5526 25.6424 25.0971 25.5069 24.6371 25.5363C24.386 25.5337 24.1352 25.5597 23.8901 25.6139C23.5875 25.6671 23.296 25.7709 23.0282 25.9214C22.9926 25.9487 22.9838 25.9985 23.008 26.0364L23.2006 26.5737C23.2089 26.6075 23.243 26.6283 23.277 26.6199C23.2774 26.6199 23.2777 26.6197 23.2781 26.6197H23.2983C23.3127 26.6178 23.3259 26.6105 23.3356 26.5996C23.7099 26.4198 24.1185 26.3218 24.5339 26.3122C24.7761 26.2954 25.0176 26.3558 25.2233 26.4847C25.3757 26.5997 25.4532 26.772 25.4532 27.1543V27.2692L25.0136 27.2318L25.0165 27.2202ZM23.9216 29.1856C23.8587 29.1401 23.8069 29.0811 23.7694 29.0133C23.5977 28.7157 23.6616 28.3382 23.9216 28.1138C24.1575 27.9538 24.4437 27.8852 24.7262 27.9213C24.9763 27.922 25.2259 27.9413 25.4733 27.9788V29.2431C25.2269 29.2935 24.9773 29.3252 24.7262 29.3379C24.4486 29.3797 24.1648 29.326 23.9216 29.1856Z" fill="white"/>
<path d="M47.4261 25.7834C47.4427 25.7493 47.4285 25.7083 47.3945 25.6915C47.2455 25.6446 47.0908 25.6185 46.9346 25.614C46.6922 25.5894 46.4473 25.629 46.225 25.7289C46.0464 25.8054 45.8887 25.9236 45.7653 26.0738V25.7289C45.7626 25.6873 45.7292 25.6541 45.6875 25.6513H44.9405C44.8989 25.6541 44.8657 25.6873 44.863 25.7289V29.8838C44.8657 29.9255 44.8989 29.9586 44.9405 29.9615H45.6676C45.7092 29.9586 45.7424 29.9255 45.7451 29.8838V27.815C45.7407 27.5693 45.7728 27.3244 45.84 27.088C45.8841 26.9332 45.9708 26.7939 46.0898 26.6857C46.185 26.5875 46.3037 26.5154 46.4347 26.476C46.5534 26.4409 46.676 26.4217 46.7998 26.4186C46.9033 26.4199 47.0063 26.4324 47.1071 26.4559C47.1538 26.461 47.196 26.4277 47.202 26.3812C47.2594 26.2462 47.3945 25.864 47.4319 25.7864" fill="white"/>
<path d="M40.5672 23.8698L40.3 23.8123C40.174 23.7884 40.0462 23.7759 39.9179 23.7749C39.4859 23.744 39.0608 23.8974 38.7484 24.1973C38.4447 24.556 38.2519 24.9953 38.1939 25.4616L38.1566 25.6541H37.5245C37.4789 25.6556 37.4399 25.6873 37.4295 25.7317L37.3347 26.3064C37.3277 26.3507 37.3568 26.3924 37.4007 26.4012H38.0443L37.4122 29.8664C37.3778 30.1015 37.32 30.3325 37.2398 30.5562C37.199 30.7002 37.134 30.8364 37.0474 30.9584C36.9876 31.0484 36.8997 31.1163 36.7973 31.1509C36.6924 31.1834 36.5822 31.1959 36.4727 31.1884C36.4152 31.1884 36.3204 31.1684 36.2428 31.1684C36.1893 31.1576 36.1379 31.138 36.0906 31.111C36.0542 31.0993 36.0144 31.1147 35.9957 31.1482C35.9757 31.2057 35.8033 31.6655 35.786 31.7027C35.765 31.7448 35.7817 31.7959 35.8233 31.8176C35.9049 31.8491 35.9884 31.8749 36.0734 31.8953C36.2053 31.925 36.3405 31.9375 36.4757 31.9326C36.7105 31.9369 36.9444 31.898 37.1653 31.8176C37.3644 31.7389 37.5415 31.614 37.6826 31.4528C37.841 31.2733 37.9649 31.0655 38.0473 30.8406C38.1539 30.5342 38.2376 30.2201 38.2974 29.9012L38.9296 26.3582H39.8375C39.8831 26.3568 39.922 26.325 39.9325 26.2806L40.0272 25.7059C40.0342 25.6617 40.0051 25.6198 39.9612 25.6111H39.0502C39.0764 25.3951 39.1275 25.1831 39.2026 24.9789C39.2409 24.8681 39.3072 24.7692 39.3951 24.6916C39.4623 24.628 39.5401 24.5764 39.625 24.5394C39.7259 24.5163 39.829 24.5037 39.9325 24.502C40.01 24.502 40.1049 24.5221 40.1623 24.5221C40.2092 24.5261 40.255 24.5388 40.2973 24.5594C40.3922 24.5795 40.3922 24.5594 40.4122 24.5221L40.6221 23.9474C40.6421 23.91 40.5846 23.89 40.5646 23.8699" fill="white"/>
<path d="M28.1656 29.8837C28.1629 29.9254 28.1298 29.9585 28.0881 29.9615H27.3611C27.3194 29.9585 27.2863 29.9254 27.2836 29.8837V23.9531C27.2863 23.9115 27.3194 23.8783 27.3611 23.8755H28.0709C28.1125 23.8783 28.1456 23.9115 28.1483 23.9531V29.8894L28.1656 29.8837Z" fill="white"/>
</svg>
