<svg width="72" height="72" viewBox="0 0 72 72" fill="none" xmlns="http://www.w3.org/2000/svg">
<rect width="72" height="72" fill="white"/>
<path fill-rule="evenodd" clip-rule="evenodd" d="M31.9749 22.6642C33.5225 21.0521 35.6785 20.051 38.0618 20.051C41.23 20.051 43.9949 21.818 45.4669 24.4412C46.784 23.8529 48.2105 23.5497 49.653 23.5514C55.3677 23.5514 60 28.2247 60 33.9903C60 39.756 55.3677 44.4292 49.653 44.4292C48.9543 44.4292 48.2729 44.3594 47.614 44.2266C46.3179 46.538 43.8464 48.1003 41.011 48.1003C39.8241 48.1003 38.7012 47.8273 37.7022 47.3385C36.3877 50.4306 33.3256 52.5976 29.7574 52.5976C26.0417 52.5976 22.8741 50.2458 21.6588 46.9485C21.1173 47.0628 20.5654 47.1203 20.012 47.1202C15.5871 47.1207 12 43.4963 12 39.0252C11.9967 37.6083 12.3648 36.2152 13.0677 34.9849C13.7706 33.7546 14.7837 32.73 16.006 32.0133C15.4989 30.8449 15.238 29.5845 15.2396 28.3107C15.2396 23.1682 19.4135 19 24.5624 19C25.9967 18.9983 27.412 19.3282 28.6979 19.9638C29.9837 20.5994 31.1052 21.5236 31.9749 22.6642Z" fill="#00A1E0"/>
<path fill-rule="evenodd" clip-rule="evenodd" d="M18.9526 36.4235L19.1468 35.8844C19.1778 35.792 19.2476 35.8224 19.276 35.8398C19.3301 35.8718 19.3689 35.9007 19.4387 35.9416C20.0109 36.3033 20.5411 36.307 20.7065 36.307C21.1349 36.307 21.4005 36.0802 21.4005 35.7742V35.7584C21.4005 35.4256 20.991 35.2996 20.518 35.1547L20.4131 35.1211C19.7637 34.9363 19.0692 34.6691 19.0692 33.847V33.8302C19.0692 33.0501 19.6986 32.5057 20.5994 32.5057L20.6981 32.5047C21.2273 32.5047 21.7386 32.6585 22.1092 32.8832C22.1428 32.9042 22.1754 32.943 22.1565 32.9945L21.957 33.5336C21.9218 33.6255 21.8257 33.5646 21.8257 33.5646C21.4391 33.3631 21.0112 33.2533 20.5753 33.2438C20.1931 33.2438 19.9474 33.4465 19.9474 33.7215V33.7389C19.9474 34.0596 20.3684 34.1966 20.8567 34.3557L20.9406 34.382C21.5879 34.5867 22.2788 34.8702 22.2788 35.6497V35.666C22.2788 36.5086 21.6667 37.032 20.6824 37.032C20.1989 37.032 19.7364 36.9574 19.2471 36.6976C19.1547 36.644 19.0634 36.5978 18.9731 36.5322C18.9636 36.5186 18.9222 36.5023 18.9521 36.4235H18.9526ZM33.3665 36.4235L33.5613 35.8844C33.5896 35.7962 33.672 35.8287 33.6899 35.8398C33.7434 35.8728 33.7833 35.9007 33.8526 35.9416C34.4259 36.3033 34.9551 36.307 35.122 36.307C35.5488 36.307 35.8149 36.0802 35.8149 35.7742V35.7584C35.8149 35.4256 35.406 35.2996 34.933 35.1547L34.828 35.1211C34.1776 34.9363 33.4831 34.6691 33.4831 33.847V33.8302C33.4831 33.0501 34.113 32.5057 35.0139 32.5057L35.112 32.5047C35.6412 32.5047 36.153 32.6585 36.5242 32.8832C36.5567 32.9042 36.5898 32.943 36.5714 32.9945C36.553 33.0422 36.3893 33.4832 36.3719 33.5336C36.3357 33.6255 36.2407 33.5646 36.2407 33.5646C35.8539 33.363 35.4258 33.2533 34.9897 33.2438C34.6075 33.2438 34.3618 33.4465 34.3618 33.7215V33.7389C34.3618 34.0596 34.7823 34.1966 35.2711 34.3557L35.3551 34.382C36.0024 34.5867 36.6927 34.8702 36.6927 35.6497V35.666C36.6927 36.5086 36.0811 37.032 35.0968 37.032C34.6128 37.032 34.1503 36.9574 33.6615 36.6976C33.5692 36.644 33.4778 36.5978 33.387 36.5322C33.3775 36.5186 33.3361 36.5023 33.3665 36.4235V36.4235ZM44.0285 33.8885C44.1094 34.1594 44.1493 34.457 44.1493 34.7715C44.1493 35.0865 44.1094 35.3831 44.0285 35.6539C43.9546 35.9151 43.8277 36.1583 43.6558 36.3684C43.4835 36.5724 43.2675 36.735 43.0237 36.844C42.7718 36.9595 42.4757 37.0173 42.1428 37.0173C41.81 37.0173 41.5129 36.9595 41.262 36.844C41.0182 36.735 40.8022 36.5724 40.6299 36.3684C40.4581 36.1583 40.3311 35.9154 40.2567 35.6545C40.1741 35.3675 40.1335 35.0701 40.1359 34.7715C40.1359 34.4565 40.1763 34.1594 40.2567 33.8885C40.3375 33.6155 40.463 33.3751 40.6294 33.1745C40.8021 32.9697 41.0181 32.8058 41.262 32.6947C41.5134 32.5771 41.809 32.5178 42.1428 32.5178C42.4767 32.5178 42.7723 32.5771 43.0237 32.6947C43.2747 32.8118 43.4878 32.973 43.6558 33.1745C43.8227 33.3751 43.9487 33.6155 44.0285 33.8885ZM43.2075 34.7715C43.2075 34.2953 43.1193 33.921 42.9439 33.6586C42.7707 33.3982 42.5082 33.2722 42.1428 33.2722C41.7775 33.2722 41.5171 33.3982 41.346 33.6586C41.1743 33.921 41.0866 34.2953 41.0866 34.7715C41.0866 35.2471 41.1743 35.624 41.347 35.8886C41.5171 36.1521 41.7775 36.2797 42.1428 36.2797C42.5082 36.2797 42.7707 36.1516 42.9439 35.8886C43.1182 35.624 43.2075 35.2471 43.2075 34.7715V34.7715ZM50.7785 36.1521L50.9801 36.7096C51.0063 36.7779 50.947 36.8078 50.947 36.8078C50.6357 36.9285 50.2037 37.0146 49.7832 37.0146C49.0703 37.0146 48.5243 36.8094 48.16 36.4041C47.7977 35.9999 47.613 35.4503 47.613 34.7683C47.613 34.4528 47.6586 34.1541 47.7479 33.8838C47.8371 33.6108 47.971 33.3703 48.1474 33.1698C48.3305 32.9637 48.5564 32.7999 48.8093 32.69C49.0718 32.5729 49.3805 32.5141 49.7249 32.5141C49.9574 32.5141 50.1643 32.5283 50.3417 32.5546C50.5312 32.584 50.7837 32.6522 50.8903 32.6937C50.9097 32.701 50.9638 32.7273 50.9418 32.7908C50.8641 33.0097 50.811 33.1525 50.7391 33.352C50.7076 33.437 50.6436 33.4087 50.6436 33.4087C50.3732 33.3236 50.1139 33.2848 49.7753 33.2848C49.3684 33.2848 49.0629 33.4202 48.8634 33.6853C48.6618 33.9525 48.549 34.3027 48.5474 34.7683C48.5458 35.2791 48.6739 35.6576 48.9007 35.8917C49.127 36.1254 49.443 36.2435 49.8409 36.2435C50.0021 36.2435 50.1543 36.233 50.2913 36.2114C50.4268 36.1899 50.5538 36.1479 50.6735 36.1012C50.6735 36.1012 50.7507 36.0723 50.7785 36.1521ZM54.9834 33.7336C55.1625 34.3604 55.069 34.9017 55.0659 34.9316C55.059 35.003 54.9855 35.004 54.9855 35.004L52.2038 35.0019C52.2211 35.4245 52.3224 35.7238 52.5271 35.9269C52.7282 36.1259 53.0474 36.2534 53.4794 36.254C54.1398 36.2555 54.4217 36.1227 54.6217 36.0487C54.6217 36.0487 54.6979 36.0214 54.7267 36.097L54.9078 36.6067C54.9446 36.6923 54.9152 36.7222 54.8842 36.7396C54.7099 36.8356 54.2873 37.0152 53.4831 37.0173C53.0931 37.0188 52.7534 36.9632 52.4736 36.8545C52.2077 36.756 51.9682 36.5974 51.7738 36.391C51.588 36.1885 51.4501 35.9468 51.3701 35.6839C51.284 35.3957 51.2417 35.0963 51.2447 34.7956C51.2447 34.4806 51.2851 34.1814 51.3664 33.9079C51.4478 33.6323 51.5743 33.3892 51.7428 33.185C51.9175 32.9766 52.1365 32.8098 52.3838 32.6968C52.639 32.5766 52.955 32.5178 53.3025 32.5178C53.6002 32.5178 53.8721 32.5819 54.0984 32.6795C54.2726 32.754 54.448 32.889 54.6275 33.0821C54.7409 33.2039 54.9136 33.4706 54.9834 33.7336V33.7336ZM52.2169 34.3148H54.2012C54.1808 34.0596 54.1309 33.8307 54.0165 33.6586C53.8422 33.3982 53.6017 33.2549 53.2369 33.2549C52.8715 33.2549 52.6122 33.3982 52.4405 33.6586C52.3282 33.8307 52.2557 34.0502 52.2164 34.3148H52.2169ZM32.7014 33.7336C32.8799 34.3604 32.788 34.9017 32.7849 34.9316C32.7775 35.003 32.704 35.004 32.704 35.004L29.9217 35.0019C29.9396 35.4245 30.0404 35.7238 30.2456 35.9269C30.4467 36.1259 30.7653 36.2534 31.1974 36.254C31.8578 36.2555 32.1407 36.1227 32.3402 36.0487C32.3402 36.0487 32.4163 36.0214 32.4447 36.097L32.6263 36.6067C32.6631 36.6923 32.6337 36.7222 32.6032 36.7396C32.4279 36.8356 32.0048 37.0152 31.2016 37.0173C30.811 37.0188 30.4713 36.9632 30.1921 36.8545C29.9261 36.7559 29.6865 36.5973 29.4918 36.391C29.3065 36.1883 29.1689 35.9467 29.0891 35.6839C29.0024 35.3959 28.9597 35.0964 28.9626 34.7956C28.9626 34.4806 29.0035 34.1814 29.0844 33.9079C29.16 33.644 29.2882 33.3981 29.4613 33.185C29.6359 32.9768 29.8547 32.81 30.1018 32.6968C30.358 32.5766 30.674 32.5178 31.0205 32.5178C31.2943 32.5172 31.5654 32.5722 31.8174 32.6795C31.9916 32.754 32.167 32.889 32.346 33.0821C32.4594 33.2039 32.6321 33.4706 32.7014 33.7336V33.7336ZM29.9343 34.3148H31.9197C31.8987 34.0596 31.8488 33.8307 31.7349 33.6586C31.5617 33.3982 31.3202 33.2549 30.9554 33.2549C30.59 33.2549 30.3301 33.3982 30.1595 33.6586C30.0461 33.8307 29.9742 34.0502 29.9338 34.3148H29.9343ZM25.028 34.1819C25.028 34.1819 25.2474 34.2014 25.4868 34.236V34.1184C25.4868 33.7473 25.4097 33.5725 25.2579 33.4554C25.1026 33.3368 24.8705 33.2753 24.5702 33.2753C24.5702 33.2753 23.893 33.2669 23.3576 33.5578C23.3329 33.5725 23.3124 33.5809 23.3124 33.5809C23.3124 33.5809 23.2452 33.6045 23.2211 33.5357L23.0242 33.0065C22.9938 32.9304 23.0489 32.8958 23.0489 32.8958C23.2993 32.7005 23.9062 32.5824 23.9062 32.5824C24.1525 32.5391 24.402 32.5161 24.6521 32.5136C25.2075 32.5136 25.6375 32.6427 25.9299 32.8984C26.2228 33.1551 26.3719 33.5688 26.3719 34.1263L26.3735 36.6713C26.3735 36.6713 26.3793 36.7448 26.3094 36.7616C26.3094 36.7616 26.2071 36.79 26.1152 36.8115C26.0223 36.833 25.6874 36.9012 25.4139 36.9474C25.1346 36.9942 24.8519 37.0178 24.5687 37.0178C24.2983 37.0178 24.0505 36.9926 23.8321 36.9427C23.6286 36.9001 23.4359 36.8165 23.2657 36.697C23.1106 36.5844 22.9861 36.4348 22.9035 36.2618C22.8179 36.087 22.7749 35.8734 22.7749 35.6266C22.7749 35.3846 22.8258 35.1689 22.924 34.9851C23.0226 34.8024 23.1581 34.6476 23.3282 34.5263C23.5039 34.4026 23.7004 34.3114 23.9083 34.257C24.1251 34.1993 24.3555 34.1693 24.5939 34.1693C24.7687 34.1693 24.9146 34.173 25.028 34.1819V34.1819ZM23.9209 36.1369C23.9193 36.1364 24.1702 36.3338 24.7367 36.2991C25.1346 36.275 25.4873 36.1994 25.4873 36.1994V34.9342C25.4873 34.9342 25.1314 34.8759 24.7319 34.8702C24.1655 34.8633 23.924 35.0718 23.9256 35.0712C23.7586 35.1899 23.6773 35.3657 23.6773 35.6093C23.6773 35.7652 23.7051 35.887 23.7613 35.9721C23.7964 36.0282 23.8117 36.0492 23.9209 36.1369V36.1369ZM47.4681 32.7483C47.4418 32.8244 47.3069 33.2055 47.2581 33.332C47.2402 33.3803 47.2108 33.4134 47.1568 33.4076C47.1568 33.4076 46.9972 33.3709 46.8512 33.3709C46.751 33.3709 46.6077 33.3835 46.4785 33.4234C46.349 33.4632 46.2311 33.534 46.1352 33.6297C46.0333 33.7278 45.9509 33.8659 45.8911 34.0392C45.8302 34.2134 45.7987 34.4906 45.7987 34.7688V36.8414C45.7988 36.8525 45.7966 36.8635 45.7924 36.8737C45.7883 36.884 45.7821 36.8933 45.7743 36.9011C45.7665 36.909 45.7572 36.9152 45.747 36.9195C45.7367 36.9237 45.7258 36.9259 45.7147 36.9259H44.9845C44.9733 36.9261 44.9622 36.924 44.9518 36.9199C44.9415 36.9157 44.932 36.9096 44.924 36.9018C44.916 36.894 44.9097 36.8847 44.9053 36.8744C44.9009 36.8641 44.8985 36.8531 44.8984 36.8419V32.6921C44.8984 32.6454 44.9325 32.6081 44.9792 32.6081H45.6916C45.7388 32.6081 45.7724 32.6454 45.7724 32.6921V33.0312C45.879 32.8884 46.0701 32.7624 46.2428 32.6847C46.416 32.606 46.6098 32.5483 46.9599 32.5693C47.1421 32.5803 47.3788 32.6302 47.4266 32.6485C47.4359 32.6523 47.4444 32.6578 47.4516 32.6649C47.4588 32.672 47.4644 32.6804 47.4683 32.6897C47.4722 32.699 47.4741 32.7089 47.4741 32.719C47.4741 32.7291 47.472 32.739 47.4681 32.7483V32.7483ZM40.6068 30.8253C40.6262 30.8332 40.6793 30.8589 40.6583 30.9219L40.4446 31.5062C40.4267 31.5503 40.4152 31.5766 40.3244 31.5493C40.2043 31.5115 40.0791 31.492 39.9532 31.4915C39.843 31.4915 39.7432 31.5057 39.655 31.5351C39.5668 31.5633 39.4868 31.6127 39.422 31.6789C39.3357 31.7623 39.269 31.8638 39.2267 31.976C39.1243 32.27 39.0849 32.5834 39.0797 32.6034H39.969C40.044 32.6034 40.0677 32.638 40.0603 32.6931L39.9564 33.2717C39.9396 33.3556 39.8635 33.3525 39.8635 33.3525H38.9469L38.3206 36.8991C38.2667 37.2172 38.1849 37.5299 38.076 37.8336C37.9778 38.0903 37.8765 38.2777 37.7137 38.4567C37.5748 38.6169 37.3982 38.74 37.1998 38.8147C37.0071 38.8856 36.773 38.9218 36.5173 38.9218C36.3956 38.9218 36.2643 38.9192 36.1094 38.8825C36.0232 38.8627 35.9381 38.8379 35.8548 38.8079C35.8207 38.7958 35.7929 38.7523 35.8128 38.6966C35.8317 38.6415 35.9966 38.1906 36.0186 38.1312C36.047 38.0598 36.1194 38.0871 36.1194 38.0871C36.1688 38.1081 36.2034 38.1218 36.269 38.1349C36.3357 38.148 36.425 38.1596 36.4927 38.1596C36.6139 38.1596 36.7242 38.1449 36.8202 38.1123C36.9357 38.0751 37.004 38.0073 37.0743 37.9171C37.1478 37.822 37.2077 37.6934 37.2691 37.5207C37.3305 37.3459 37.3867 37.1149 37.435 36.8351L38.0586 33.353H37.4444C37.3709 33.353 37.3457 33.3184 37.3541 33.2627L37.457 32.6842C37.4733 32.6002 37.5515 32.6034 37.5515 32.6034H38.182L38.2161 32.4154C38.3106 31.8569 38.498 31.4322 38.7752 31.1534C39.054 30.8726 39.4503 30.7308 39.9532 30.7308C40.0971 30.7308 40.2241 30.7403 40.3317 30.7597C40.4372 30.7797 40.5176 30.798 40.6068 30.8253V30.8253ZM28.1778 36.8414C28.1778 36.8887 28.1452 36.9259 28.098 36.9259H27.3604C27.3132 36.9259 27.2811 36.8881 27.2811 36.8419V30.903C27.2811 30.8574 27.3137 30.8196 27.3599 30.8196H28.098C28.1452 30.8196 28.1778 30.8574 28.1778 30.9035V36.8414V36.8414Z" fill="white"/>
</svg>
