<svg width="72" height="72" viewBox="0 0 72 72" fill="none" xmlns="http://www.w3.org/2000/svg"><path fill="#fff" d="M0 0h72v72H0z"/><path fill-rule="evenodd" clip-rule="evenodd" d="M12 47.745h24.26L60 24H12v23.745Z" fill="url(#a)"/><path fill-rule="evenodd" clip-rule="evenodd" d="M40.486 28.75h-4.741l.016 11.149-4.128-11.154H27.54l-3.524 9.315c-.374-2.37-2.825-3.188-4.753-3.8-1.273-.41-2.625-1.011-2.611-1.676.01-.546.723-1.052 2.139-.976.95.05 1.788.127 3.458.934l1.64-2.86c-1.521-.775-3.626-1.264-5.351-1.266h-.01c-2.013 0-3.688.652-4.727 1.726a3.99 3.99 0 0 0-1.13 2.756c-.027 1.45.506 2.478 1.622 3.3.943.69 2.15 1.14 3.213 1.468 1.311.407 2.383.76 2.37 1.513-.01.276-.12.539-.312.738-.326.337-.828.464-1.522.478-1.339.028-2.33-.182-3.912-1.117l-1.46 2.897c1.58.898 3.256 1.348 5.16 1.348l.43-.002c1.657-.03 3.003-.428 4.072-1.288.061-.049.116-.099.173-.149l-.18.924 4-.012.718-1.838c.754.258 1.613.4 2.523.4a7.95 7.95 0 0 0 2.463-.377l.5 1.815 7.176.006.017-4.188h1.528c3.691 0 5.873-1.879 5.873-5.028-.001-3.509-2.122-5.037-6.637-5.037Zm-10.92 9.53a4.29 4.29 0 0 1-1.513-.265l1.496-4.726h.03l1.472 4.739a4.43 4.43 0 0 1-1.485.251Zm11.198-2.715h-1.042v-3.808h1.042c1.387 0 2.496.462 2.496 1.88-.002 1.466-1.108 1.928-2.496 1.928" fill="#fff"/><defs><linearGradient id="a" x1="36" y1="24" x2="36" y2="47.746" gradientUnits="userSpaceOnUse"><stop stop-color="#00AEEF"/><stop offset=".212" stop-color="#0097DC"/><stop offset=".519" stop-color="#007CC5"/><stop offset=".792" stop-color="#006CB8"/><stop offset="1" stop-color="#0066B3"/></linearGradient></defs></svg>