<svg width="72" height="72" viewBox="0 0 72 72" fill="none" xmlns="http://www.w3.org/2000/svg"><g clip-path="url(#a)" fill-rule="evenodd" clip-rule="evenodd"><path d="M0 53.802h36.375l35.598-35.604H0v35.604Z" fill="url(#b)"/><path d="M42.713 25.319h-7.109l.024 16.718-6.19-16.724h-6.137L18.017 39.28c-.561-3.554-4.236-4.78-7.127-5.699-1.909-.613-3.935-1.515-3.915-2.512.016-.818 1.084-1.577 3.207-1.463 1.424.076 2.682.19 5.185 1.4l2.46-4.288c-2.281-1.162-5.437-1.895-8.024-1.898h-.016c-3.017 0-5.529.977-7.086 2.587-1.085 1.124-1.67 2.553-1.695 4.133-.04 2.174.758 3.715 2.432 4.947 1.414 1.037 3.224 1.71 4.818 2.203 1.966.61 3.573 1.14 3.553 2.268a1.67 1.67 0 0 1-.467 1.106c-.49.506-1.242.696-2.283.717-2.007.042-3.494-.273-5.865-1.675l-2.19 4.344c2.369 1.347 4.883 2.022 7.739 2.022l.642-.004c2.486-.045 4.504-.641 6.107-1.93.092-.074.174-.149.26-.224l-.27 1.386 5.998-.019 1.076-2.755c1.131.386 2.418.6 3.783.6 1.331 0 2.583-.203 3.693-.566l.75 2.721 10.76.01.026-6.28h2.29c5.535 0 8.806-2.817 8.806-7.54-.001-5.261-3.182-7.552-9.951-7.552Zm-16.374 14.29a6.43 6.43 0 0 1-2.269-.397l2.244-7.085h.044l2.207 7.105a6.643 6.643 0 0 1-2.226.377Zm16.79-4.07h-1.562v-5.71h1.563c2.08 0 3.742.693 3.742 2.818-.002 2.2-1.661 2.892-3.742 2.892" fill="#fff"/></g><defs><linearGradient id="b" x1="35.986" y1="18.198" x2="35.986" y2="53.803" gradientUnits="userSpaceOnUse"><stop stop-color="#00AEEF"/><stop offset=".212" stop-color="#0097DC"/><stop offset=".519" stop-color="#007CC5"/><stop offset=".792" stop-color="#006CB8"/><stop offset="1" stop-color="#0066B3"/></linearGradient><clipPath id="a"><path fill="#fff" transform="translate(0 18.198)" d="M0 0h72v35.604H0z"/></clipPath></defs></svg>