<svg width="72" height="72" viewBox="0 0 72 72" fill="none" xmlns="http://www.w3.org/2000/svg">
<rect width="72" height="72" fill="#FA6423"/>
<path d="M35.7472 55.1985C31.4421 55.1985 27.9517 51.7084 27.9517 47.4033C27.9517 43.098 31.4421 39.6079 35.7472 39.6079C40.0522 39.6079 43.5424 43.098 43.5424 47.4033C43.5424 51.7084 40.0522 55.1985 35.7472 55.1985ZM43.6551 30.6973C41.1766 32.5673 40.6968 35.8672 40.6236 38.0977C36.7061 33.5671 47.8792 20.2379 35.1828 12C43.042 22.171 24 32.1702 24 47.1536C24 53.027 27.67 58.2033 35.731 60C43.6384 58.3163 47.5403 53.027 47.5403 47.1539C47.5403 38.3964 42.0881 35.4665 43.6551 30.6973Z" fill="white"/>
</svg>
