<svg width="72" height="72" fill="none" xmlns="http://www.w3.org/2000/svg"><path fill="#30C0D8" d="M0 0h72v72H0z"/><path fill-rule="evenodd" clip-rule="evenodd" d="M59.04 45.294l-.001-.993-.8.127v-3.012l-1.095.173-.002 4.005 1.898-.3zm-2.401.38l.002-4.005-1.092.173v4.005l1.09-.173zm-2.78-2.443l.216 1.45-.436.07.22-1.52zm-.405 2.948l.08-.603.645-.102.085.576 1.103-.174-.895-3.864-1.287.204-.85 4.14 1.119-.177zm-3.397.538l.738-.117.468-3.04.102 2.95.943-.15-.285-3.96-1.27.201-.338 2.166-.337-2.059-1.277.202-.28 4.05.939-.149.093-2.985.504 2.89zm-1.831.29v-1.035l-.845.134.003-.552.763-.12-.003-.938-.763.12.004-.51.843-.134v-.97l-1.935.306-.002 4.005 1.935-.306zm-5.177-2.354a.421.421 0 00.04-.01.398.398 0 01.036-.008c.12-.019.212-.006.278.038.066.045.107.123.125.236.031.196.01.353-.063.472-.072.118-.191.19-.357.217l-.06.01v-.955zm-.002 3.174l-.005-1.618.497 1.54 1.156-.183-.753-1.634a.995.995 0 00.534-.501c.106-.227.133-.5.083-.82-.058-.366-.208-.607-.45-.724-.243-.117-.654-.13-1.232-.038l-.92.146L41.955 48l1.092-.173zM39.8 46.292c0-.254.014-.476.044-.665a.731.731 0 01.103-.312.288.288 0 01.199-.123.188.188 0 01.19.075.713.713 0 01.108.314c.034.221.053.457.055.709.003.25-.012.468-.043.65a.821.821 0 01-.105.316.267.267 0 01-.185.122c-.086.014-.154-.01-.203-.07-.05-.061-.087-.165-.11-.311a4.62 4.62 0 01-.053-.705zm1.087 1.785c.19-.144.343-.34.46-.587a2.89 2.89 0 00.245-.925c.04-.354.03-.712-.027-1.076-.072-.454-.24-.794-.502-1.022-.263-.228-.583-.313-.96-.253-.264.042-.49.134-.678.278-.189.143-.344.34-.465.589a2.84 2.84 0 00-.245.922c-.04.357-.03.717.027 1.08.07.444.239.782.506 1.014.267.232.586.319.955.26.266-.042.494-.135.684-.28zm-3.22.602l.001-1.512.739-.117-.004-.943-.733.116-.001-.578.848-.135v-.97l-1.935.306-.002 4.005 1.086-.172zm22.33-1.762L12 54.316v-7.302l47.996-7.4v7.303zM54.512 38.9l-.003-20.026 5.459-.864-.01 20.027-5.446.863zm-10.96-8.4l-4.138-9.235 5.647-.894 1.422 5.083 1.428-5.535 5.674-.898-4.146 10.546 4.524 9.42-5.78.916-1.7-5.012-1.673 5.546-5.78.915 4.522-10.853zm-20.07 13.315l4.252-20.7 6.436-1.02 4.473 19.318-5.513.874-.43-2.882-3.224.511-.4 3.013-5.594.886zm-2.692.426l-5.486.869-.009-14.95-3.251.515.005-5.076 11.976-1.896-.005 5.075-3.239.513.009 14.95zm9.212-8.454l2.18-.346-1.079-7.25-1.101 7.596z" fill="#fff"/></svg>